<svg xmlns="http://www.w3.org/2000/svg" viewBox="0 0 600 300"><path d="M505.3,247.5a3.54,3.54,0,0,1-3.5,3.5H174a3.54,3.54,0,0,1-3.5-3.5V199.2a3.54,3.54,0,0,1,3.5-3.5H501.8a3.54,3.54,0,0,1,3.5,3.5v48.3Z" style="fill:#714b67"/><path d="M208.6,229.5c.2,0,.3.1.5.2l1.2,1.4a10,10,0,0,1-3.5,2.6,12.42,12.42,0,0,1-5,.9,11.44,11.44,0,0,1-4.6-.9,9.76,9.76,0,0,1-3.5-2.5,12.07,12.07,0,0,1-2.3-3.8,15.25,15.25,0,0,1-.8-4.9,13,13,0,0,1,.9-4.9,12.3,12.3,0,0,1,2.4-3.8,10.53,10.53,0,0,1,3.7-2.5,12.09,12.09,0,0,1,4.8-.9,12.46,12.46,0,0,1,4.5.8,9.55,9.55,0,0,1,3.3,2.2l-1,1.5-.3.3c-.1.1-.2.1-.4.1a1.69,1.69,0,0,1-.5-.2,6.13,6.13,0,0,1-.6-.4,9.22,9.22,0,0,1-.8-.5,9.29,9.29,0,0,0-1-.5,5.73,5.73,0,0,0-1.4-.4,10.07,10.07,0,0,0-1.9-.2,9,9,0,0,0-3.4.6,8,8,0,0,0-2.7,1.8,9.47,9.47,0,0,0-1.8,2.9,13,13,0,0,0,0,7.8,9.25,9.25,0,0,0,1.7,2.9,6.77,6.77,0,0,0,2.6,1.8,8.66,8.66,0,0,0,3.2.6,11.48,11.48,0,0,0,1.9-.1,6.51,6.51,0,0,0,2.8-1.1,10.59,10.59,0,0,0,1.2-1A1,1,0,0,0,208.6,229.5Z" style="fill:#fff"/><path d="M220.8,217.5a8.81,8.81,0,0,1,3.3.6,7.39,7.39,0,0,1,2.5,1.7,7.18,7.18,0,0,1,1.6,2.7,9.89,9.89,0,0,1,.5,3.5,12.3,12.3,0,0,1-.5,3.5,9.19,9.19,0,0,1-1.6,2.7,7.39,7.39,0,0,1-2.5,1.7,9.37,9.37,0,0,1-6.6,0,7.39,7.39,0,0,1-2.5-1.7,7.18,7.18,0,0,1-1.6-2.7,9.89,9.89,0,0,1-.6-3.5,9.51,9.51,0,0,1,.6-3.5,7.18,7.18,0,0,1,1.6-2.7,7.39,7.39,0,0,1,2.5-1.7A8.45,8.45,0,0,1,220.8,217.5Zm0,14.8a4.32,4.32,0,0,0,3.7-1.6,9.42,9.42,0,0,0,0-9.2,4.26,4.26,0,0,0-3.7-1.7,5.09,5.09,0,0,0-2.2.4,4.43,4.43,0,0,0-1.5,1.2,5.28,5.28,0,0,0-.9,2,10.9,10.9,0,0,0-.3,2.6,9.78,9.78,0,0,0,.3,2.6,6.11,6.11,0,0,0,.9,2,4.43,4.43,0,0,0,1.5,1.2A3.79,3.79,0,0,0,220.8,232.3Z" style="fill:#fff"/><path d="M232.3,234.4V217.8H234a.76.76,0,0,1,.8.6l.2,1.7a7.56,7.56,0,0,1,2.1-1.9,4.62,4.62,0,0,1,2.6-.7,4,4,0,0,1,2.7.9,5.26,5.26,0,0,1,1.5,2.5,5.07,5.07,0,0,1,.9-1.6,6.89,6.89,0,0,1,1.3-1.1,4.71,4.71,0,0,1,1.5-.6,8.75,8.75,0,0,1,1.6-.2,5.56,5.56,0,0,1,2.3.4,4.34,4.34,0,0,1,1.7,1.2,5.47,5.47,0,0,1,1.1,2,7.66,7.66,0,0,1,.4,2.7v10.6h-2.9V223.7a4.48,4.48,0,0,0-.9-3,3,3,0,0,0-2.5-1,3.53,3.53,0,0,0-1.4.3,4.13,4.13,0,0,0-1.1.7,3.6,3.6,0,0,0-.8,1.2,4.67,4.67,0,0,0-.3,1.7v10.6H242V223.6a5.1,5.1,0,0,0-.8-3,2.64,2.64,0,0,0-2.3-1,3.61,3.61,0,0,0-2,.6,6.37,6.37,0,0,0-1.7,1.6v12.4h-2.9Z" style="fill:#fff"/><path d="M259.1,234.4V217.8h1.7a.76.76,0,0,1,.8.6l.2,1.7a7.56,7.56,0,0,1,2.1-1.9,4.62,4.62,0,0,1,2.6-.7,4,4,0,0,1,2.7.9,5.26,5.26,0,0,1,1.5,2.5,5.07,5.07,0,0,1,.9-1.6,6.89,6.89,0,0,1,1.3-1.1,4.71,4.71,0,0,1,1.5-.6,8.75,8.75,0,0,1,1.6-.2,5.56,5.56,0,0,1,2.3.4A4.34,4.34,0,0,1,280,219a5.47,5.47,0,0,1,1.1,2,7.66,7.66,0,0,1,.4,2.7v10.6h-2.9V223.7a4.48,4.48,0,0,0-.9-3,3,3,0,0,0-2.5-1,3.53,3.53,0,0,0-1.4.3,4.13,4.13,0,0,0-1.1.7,3.6,3.6,0,0,0-.8,1.2,4.67,4.67,0,0,0-.3,1.7v10.6h-2.9V223.6a5.1,5.1,0,0,0-.8-3,2.64,2.64,0,0,0-2.3-1,3.61,3.61,0,0,0-2,.6,6.37,6.37,0,0,0-1.7,1.6v12.4h-2.8Z" style="fill:#fff"/><path d="M288.6,217.8v10.6a4.2,4.2,0,0,0,.9,2.9,3.25,3.25,0,0,0,2.6,1,4.75,4.75,0,0,0,2.4-.6,8.27,8.27,0,0,0,2.1-1.7V217.8h2.9v16.6h-1.7a.76.76,0,0,1-.8-.6l-.2-1.8a8.76,8.76,0,0,1-2.4,1.9,6.17,6.17,0,0,1-3.1.7,6.05,6.05,0,0,1-2.4-.4,3.71,3.71,0,0,1-1.7-1.3,5.47,5.47,0,0,1-1.1-2,10.13,10.13,0,0,1-.4-2.6V217.7l2.9.1Z" style="fill:#fff"/><path d="M304.3,234.4V217.8H306a.76.76,0,0,1,.8.6l.2,1.8a8.76,8.76,0,0,1,2.4-1.9,6.17,6.17,0,0,1,3.1-.7,6.05,6.05,0,0,1,2.4.4,3.71,3.71,0,0,1,1.7,1.3,5.47,5.47,0,0,1,1.1,2,10.13,10.13,0,0,1,.4,2.6v10.6h-2.9V223.9a4.2,4.2,0,0,0-.9-2.9,3.12,3.12,0,0,0-2.6-1,4.75,4.75,0,0,0-2.4.6,10.45,10.45,0,0,0-2.1,1.7v12.2l-2.9-.1Z" style="fill:#fff"/><path d="M326.4,212.6a2.35,2.35,0,0,1-.2.8,3,3,0,0,1-.5.7,1.61,1.61,0,0,1-.7.4,1.88,1.88,0,0,1-.8.2,2.35,2.35,0,0,1-.8-.2c-.2-.1-.5-.3-.7-.4a1.61,1.61,0,0,1-.4-.7,1.7,1.7,0,0,1,0-1.6,4.35,4.35,0,0,1,.4-.7,1.61,1.61,0,0,1,.7-.4,1.7,1.7,0,0,1,1.6,0,4.35,4.35,0,0,1,.7.4,4.23,4.23,0,0,1,.5.7A1.88,1.88,0,0,1,326.4,212.6Zm-.7,5.2v16.6h-2.9V217.8Z" style="fill:#fff"/><path d="M335.9,234.6a4.08,4.08,0,0,1-3-1.1,4.42,4.42,0,0,1-1.1-3.2V220.1h-2a.52.52,0,0,1-.4-.2.76.76,0,0,1-.2-.5v-1.2l2.7-.3.7-5.1a.52.52,0,0,1,.2-.4.76.76,0,0,1,.5-.2h1.5v5.7h4.8V220h-4.8v10a2.54,2.54,0,0,0,.5,1.6,1.9,1.9,0,0,0,1.3.5,2,2,0,0,0,.8-.1l.6-.3a1.38,1.38,0,0,0,.4-.3.37.37,0,0,1,.3-.1c.2,0,.3.1.4.3l.9,1.4a5.44,5.44,0,0,1-1.8,1.1A5,5,0,0,1,335.9,234.6Z" style="fill:#fff"/><path d="M347.9,239.3a1,1,0,0,1-.4.5,1.17,1.17,0,0,1-.7.2h-2.2l3-6.6-6.8-15.6h2.5a1.07,1.07,0,0,1,.6.2c.1.1.2.3.3.4l4.4,10.4c.1.2.2.5.3.7s.1.5.2.7a1.85,1.85,0,0,0,.2-.7c.1-.2.2-.5.3-.7l4.3-10.4a1.38,1.38,0,0,1,.3-.4c.2-.1.3-.2.5-.2H357Z" style="fill:#fff"/><path d="M378.6,226.7l.3.9.3-.9a5.94,5.94,0,0,1,.4-.8l7.9-14.4a1.08,1.08,0,0,1,.4-.5c.1-.1.4-.1.7-.1h2.3v23.5h-2.8V215.7l-8,14.7a1.27,1.27,0,0,1-1.1.7h-.5a1.08,1.08,0,0,1-1.1-.7l-8.2-14.7c0,.3.1.6.1.8v18h-2.8V211h2.3a1.48,1.48,0,0,1,.7.1,1.08,1.08,0,0,1,.4.5L378,226A2,2,0,0,1,378.6,226.7Z" style="fill:#fff"/><path d="M402.9,217.5a8.68,8.68,0,0,1,2.8.5,6.36,6.36,0,0,1,2.2,1.4,5.94,5.94,0,0,1,1.4,2.3,8,8,0,0,1,.5,3.2,5.53,5.53,0,0,1-.1.9.85.85,0,0,1-.6.2h-11a10.26,10.26,0,0,0,.4,2.7,5,5,0,0,0,1.1,1.9,6.1,6.1,0,0,0,1.6,1.2,4.64,4.64,0,0,0,2.1.4,5.41,5.41,0,0,0,1.9-.3,12.13,12.13,0,0,1,1.4-.5,9.25,9.25,0,0,1,1-.5,1.33,1.33,0,0,1,.7-.3.86.86,0,0,1,.6.3l.8,1.1a6.89,6.89,0,0,1-1.3,1.1,8,8,0,0,1-1.6.8,12.09,12.09,0,0,1-1.8.5,11,11,0,0,1-1.8.2,8.66,8.66,0,0,1-3.2-.6,7.39,7.39,0,0,1-2.5-1.7,6.45,6.45,0,0,1-1.6-2.8,11.22,11.22,0,0,1-.6-3.8,10.73,10.73,0,0,1,.5-3.2,9.34,9.34,0,0,1,1.5-2.6,8.07,8.07,0,0,1,2.4-1.7A6.57,6.57,0,0,1,402.9,217.5Zm0,2.2a4.46,4.46,0,0,0-3.3,1.2,5.66,5.66,0,0,0-1.5,3.4h9a5.82,5.82,0,0,0-.3-1.9,5.3,5.3,0,0,0-.8-1.5,6.42,6.42,0,0,0-1.3-1A9,9,0,0,0,402.9,219.7Z" style="fill:#fff"/><path d="M413.5,234.4V217.8h1.7a.76.76,0,0,1,.8.6l.2,1.7a7.56,7.56,0,0,1,2.1-1.9,4.62,4.62,0,0,1,2.6-.7,4,4,0,0,1,2.7.9,5.26,5.26,0,0,1,1.5,2.5,5.07,5.07,0,0,1,.9-1.6,6.89,6.89,0,0,1,1.3-1.1,4.71,4.71,0,0,1,1.5-.6,8.75,8.75,0,0,1,1.6-.2,5.56,5.56,0,0,1,2.3.4,4.34,4.34,0,0,1,1.7,1.2,5.47,5.47,0,0,1,1.1,2,7.66,7.66,0,0,1,.4,2.7v10.6H433V223.7a4.48,4.48,0,0,0-.9-3,3,3,0,0,0-2.5-1,3.53,3.53,0,0,0-1.4.3,4.13,4.13,0,0,0-1.1.7,3.6,3.6,0,0,0-.8,1.2,4.67,4.67,0,0,0-.3,1.7v10.6h-2.9V223.6a5.1,5.1,0,0,0-.8-3,2.64,2.64,0,0,0-2.3-1,3.61,3.61,0,0,0-2,.6,6.37,6.37,0,0,0-1.7,1.6v12.4h-2.8Z" style="fill:#fff"/><path d="M440.4,234.4V210.3h2.9v9.9a8.76,8.76,0,0,1,2.4-1.9,6.17,6.17,0,0,1,3.1-.7,7.08,7.08,0,0,1,2.6.5,6.15,6.15,0,0,1,2,1.6,8.49,8.49,0,0,1,1.3,2.7,13.7,13.7,0,0,1,.4,3.6,12.13,12.13,0,0,1-.5,3.4,6.91,6.91,0,0,1-1.4,2.7,5.78,5.78,0,0,1-2.3,1.8,7.35,7.35,0,0,1-3,.7,5.4,5.4,0,0,1-2.7-.6,7.88,7.88,0,0,1-2-1.7l-.1,1.5a.7.7,0,0,1-.8.6Zm7.4-14.5a4.3,4.3,0,0,0-2.5.7,7.11,7.11,0,0,0-2,1.9v8A4.73,4.73,0,0,0,445,232a4.92,4.92,0,0,0,2.1.4,4.53,4.53,0,0,0,3.6-1.6,8,8,0,0,0,1.2-4.7,11.43,11.43,0,0,0-.3-2.8,6.78,6.78,0,0,0-.8-1.9,3.34,3.34,0,0,0-1.3-1.1A2.86,2.86,0,0,0,447.8,219.9Z" style="fill:#fff"/><path d="M465.2,217.5a8.68,8.68,0,0,1,2.8.5,6.36,6.36,0,0,1,2.2,1.4,5.94,5.94,0,0,1,1.4,2.3,10.23,10.23,0,0,1,.5,3.2,5.53,5.53,0,0,1-.1.9.85.85,0,0,1-.6.2h-11a10.26,10.26,0,0,0,.4,2.7,5,5,0,0,0,1.1,1.9,6.1,6.1,0,0,0,1.6,1.2,4.64,4.64,0,0,0,2.1.4,5.41,5.41,0,0,0,1.9-.3,12.13,12.13,0,0,1,1.4-.5,9.25,9.25,0,0,1,1-.5,1.33,1.33,0,0,1,.7-.3.86.86,0,0,1,.6.3l.8,1.1a6.89,6.89,0,0,1-1.3,1.1,8,8,0,0,1-1.6.8,12.09,12.09,0,0,1-1.8.5,11,11,0,0,1-1.8.2,8.66,8.66,0,0,1-3.2-.6,7.39,7.39,0,0,1-2.5-1.7,6.45,6.45,0,0,1-1.6-2.8,11.22,11.22,0,0,1-.6-3.8,10.73,10.73,0,0,1,.5-3.2,9.34,9.34,0,0,1,1.5-2.6,8.07,8.07,0,0,1,2.4-1.7A6.57,6.57,0,0,1,465.2,217.5Zm.1,2.2a4.46,4.46,0,0,0-3.3,1.2,5.66,5.66,0,0,0-1.5,3.4h9a5.82,5.82,0,0,0-.3-1.9,5.3,5.3,0,0,0-.8-1.5,6.42,6.42,0,0,0-1.3-1A9.91,9.91,0,0,0,465.3,219.7Z" style="fill:#fff"/><path d="M475.8,234.4V217.8h1.7a.71.71,0,0,1,.8.8l.2,2.6a7.47,7.47,0,0,1,2.1-2.7,4.84,4.84,0,0,1,2.9-1,3.73,3.73,0,0,1,1.2.2,3,3,0,0,1,1,.4l-.4,2.2c-.1.3-.2.4-.5.4a4.08,4.08,0,0,1-.7-.2,4.44,4.44,0,0,0-1.3-.2,3.49,3.49,0,0,0-2.5.9,5.62,5.62,0,0,0-1.7,2.6v10.6Z" style="fill:#fff"/><path d="M457.5,79.2a50,50,0,1,0,50,50A50,50,0,0,0,457.5,79.2Zm0,80a30,30,0,1,1,30-30A30,30,0,0,1,457.5,159.2Z" style="fill:#8f8f8f"/><path d="M352.5,79.2a50,50,0,1,0,50,50A50,50,0,0,0,352.5,79.2Zm0,80a30,30,0,1,1,30-30A30,30,0,0,1,352.5,159.2Z" style="fill:#8f8f8f"/><path d="M142.5,79.2a50,50,0,1,0,50,50A50,50,0,0,0,142.5,79.2Zm0,80a30,30,0,1,1,30-30A30,30,0,0,1,142.5,159.2Z" style="fill:#714b67"/><path d="M287.5,49.1a10,10,0,0,0-10,10v30a50,50,0,1,0,20,40.1h0V59.1A10,10,0,0,0,287.5,49.1Zm-40,110a30,30,0,1,1,30-30A30,30,0,0,1,247.5,159.1Z" style="fill:#8f8f8f"/></svg>
