<svg xmlns="http://www.w3.org/2000/svg" xmlns:xlink="http://www.w3.org/1999/xlink" width="1096" zoomAndPan="magnify" viewBox="0 0 822 359.999987" height="480" preserveAspectRatio="xMidYMid meet" version="1.0"><defs><clipPath id="219778a40d"><path d="M 36 75.9375 L 255.75 75.9375 L 255.75 294.9375 L 36 294.9375 Z M 36 75.9375 " clip-rule="nonzero"/></clipPath><clipPath id="c32f0ad5de"><path d="M 560.363281 75.9375 L 786 75.9375 L 786 267.9375 L 560.363281 267.9375 Z M 560.363281 75.9375 " clip-rule="nonzero"/></clipPath><clipPath id="53beee2380"><path d="M 308.742188 151.199219 L 507.492188 151.199219 L 507.492188 295.199219 L 308.742188 295.199219 Z M 308.742188 151.199219 " clip-rule="nonzero"/></clipPath></defs><rect x="-82.2" width="986.4" fill="#ffffff" y="-35.999999" height="431.999984" fill-opacity="1"/><rect x="-82.2" width="986.4" fill="#ebffd1" y="-35.999999" height="431.999984" fill-opacity="1"/><path fill="#fcb13b" d="M 38.199219 141.949219 L 200.054688 141.949219 L 200.054688 266.25 C 146.097656 266.25 92.140625 266.25 38.199219 266.25 C 38.199219 224.808594 38.199219 183.375 38.199219 141.949219 Z M 38.199219 141.949219 " fill-opacity="1" fill-rule="evenodd"/><path fill="#6abdc8" d="M 221.621094 245.851562 C 212.824219 272.296875 187.898438 291.355469 158.503906 291.355469 C 124.902344 291.355469 97.125 266.433594 92.636719 234.050781 L 210.292969 234.050781 C 210.332031 227.707031 212.765625 221.382812 217.609375 216.550781 C 223.550781 210.609375 231.722656 208.285156 239.417969 209.566406 C 240.410156 215.519531 239.246094 221.75 235.929688 227.023438 C 241.890625 228.4375 247.015625 231.996094 250.476562 236.84375 C 245.945312 243.183594 238.507812 247.328125 230.125 247.328125 C 227.140625 247.335938 224.28125 246.8125 221.621094 245.851562 Z M 221.621094 245.851562 " fill-opacity="1" fill-rule="evenodd"/><path fill="#6abdc8" d="M 116.863281 195.332031 L 145.609375 195.332031 L 145.609375 224.085938 L 116.863281 224.085938 Z M 116.863281 195.332031 " fill-opacity="1" fill-rule="evenodd"/><path fill="#6abdc8" d="M 157.285156 195.332031 L 186.035156 195.332031 L 186.035156 224.085938 L 157.285156 224.085938 Z M 157.285156 195.332031 " fill-opacity="1" fill-rule="evenodd"/><path fill="#6abdc8" d="M 137.066406 155.9375 L 165.828125 155.9375 L 165.828125 184.695312 L 137.066406 184.695312 Z M 137.066406 155.9375 " fill-opacity="1" fill-rule="evenodd"/><path fill="#b5b682" d="M 38.199219 79.464844 L 200.054688 79.464844 L 200.054688 141.949219 C 146.097656 141.949219 92.140625 141.949219 38.199219 141.949219 C 38.199219 121.117188 38.199219 100.292969 38.199219 79.464844 Z M 38.199219 79.464844 " fill-opacity="1" fill-rule="evenodd"/><g clip-path="url(#219778a40d)"><path fill="#000000" d="M 102.570312 121.359375 C 104.121094 122.535156 104.414062 124.757812 103.226562 126.308594 C 102.050781 127.847656 99.828125 128.152344 98.277344 126.964844 L 80.734375 113.519531 C 78.847656 112.078125 78.925781 109.253906 80.785156 107.863281 L 98.277344 94.460938 C 99.828125 93.273438 102.046875 93.578125 103.226562 95.132812 C 104.414062 96.671875 104.121094 98.894531 102.570312 100.082031 L 88.675781 110.714844 Z M 126.332031 93.601562 C 127.308594 91.90625 129.472656 91.328125 131.15625 92.320312 C 132.839844 93.296875 133.417969 95.449219 132.441406 97.132812 L 114.734375 127.820312 C 113.746094 129.519531 111.59375 130.09375 109.910156 129.117188 C 108.226562 128.140625 107.652344 125.972656 108.628906 124.289062 Z M 142.78125 126.964844 C 141.242188 128.152344 139.019531 127.847656 137.832031 126.308594 C 136.65625 124.757812 136.949219 122.539062 138.5 121.359375 L 152.378906 110.714844 L 138.5 100.078125 C 136.949219 98.886719 136.65625 96.664062 137.832031 95.128906 C 139.019531 93.574219 141.242188 93.269531 142.78125 94.457031 L 160.285156 107.859375 C 162.144531 109.25 162.226562 112.074219 160.339844 113.515625 Z M 59.3125 224.304688 C 57.359375 224.304688 55.769531 222.730469 55.769531 220.773438 C 55.769531 218.820312 57.359375 217.230469 59.3125 217.230469 L 82.257812 217.230469 C 84.210938 217.230469 85.800781 218.820312 85.800781 220.773438 C 85.800781 222.730469 84.210938 224.304688 82.257812 224.304688 Z M 59.3125 204.867188 C 57.359375 204.867188 55.769531 203.292969 55.769531 201.339844 C 55.769531 199.371094 57.359375 197.792969 59.3125 197.792969 L 105.207031 197.792969 C 107.160156 197.792969 108.75 199.371094 108.75 201.339844 C 108.75 203.292969 107.160156 204.867188 105.207031 204.867188 Z M 59.3125 185.429688 C 57.359375 185.429688 55.769531 183.855469 55.769531 181.886719 C 55.769531 179.933594 57.359375 178.359375 59.3125 178.359375 L 105.207031 178.359375 C 107.160156 178.359375 108.75 179.933594 108.75 181.886719 C 108.75 183.855469 107.160156 185.429688 105.207031 185.429688 Z M 59.3125 165.996094 C 57.359375 165.996094 55.769531 164.402344 55.769531 162.449219 C 55.769531 160.496094 57.359375 158.921875 59.3125 158.921875 L 105.207031 158.921875 C 107.160156 158.921875 108.75 160.5 108.75 162.449219 C 108.75 164.398438 107.160156 165.996094 105.207031 165.996094 Z M 39.601562 75.9375 L 201.46875 75.9375 C 203.421875 75.9375 204.996094 77.527344 204.996094 79.480469 L 204.996094 230.523438 L 208.421875 230.523438 C 210.492188 214.527344 225.46875 203.453125 241.410156 206.097656 C 242.960938 206.367188 244.113281 207.609375 244.324219 209.082031 C 245.167969 214.578125 244.59375 219.863281 242.402344 224.976562 C 247.363281 227.023438 251.640625 230.433594 254.753906 234.804688 C 255.664062 236.085938 255.601562 237.773438 254.703125 238.976562 C 247.84375 248.300781 236.519531 252.753906 225.21875 250.171875 C 214.855469 276.902344 189.0625 294.917969 159.921875 294.917969 C 138.621094 294.917969 119.230469 285.367188 106.207031 269.796875 L 39.601562 269.796875 C 37.648438 269.796875 36.074219 268.222656 36.074219 266.269531 L 36.074219 79.480469 C 36.070312 77.527344 37.648438 75.9375 39.601562 75.9375 Z M 197.925781 83.023438 L 43.144531 83.023438 L 43.144531 138.398438 L 197.925781 138.398438 Z M 138.488281 152.402344 L 167.234375 152.402344 C 169.1875 152.402344 170.777344 153.980469 170.777344 155.949219 L 170.777344 184.703125 C 170.777344 186.65625 169.1875 188.234375 167.234375 188.234375 L 138.488281 188.234375 C 136.535156 188.234375 134.945312 186.65625 134.945312 184.703125 L 134.945312 155.949219 C 134.945312 153.984375 136.535156 152.402344 138.488281 152.402344 Z M 163.707031 159.480469 L 142.03125 159.480469 L 142.03125 181.164062 L 163.707031 181.164062 Z M 158.691406 191.789062 L 187.4375 191.789062 C 189.390625 191.789062 190.980469 193.378906 190.980469 195.332031 L 190.980469 224.085938 C 190.980469 226.042969 189.390625 227.632812 187.4375 227.632812 L 158.691406 227.632812 C 156.738281 227.632812 155.164062 226.042969 155.164062 224.085938 L 155.164062 195.332031 C 155.164062 193.378906 156.738281 191.789062 158.691406 191.789062 Z M 183.910156 198.875 L 162.234375 198.875 L 162.234375 220.558594 L 183.910156 220.558594 Z M 118.285156 191.789062 L 147.03125 191.789062 C 148.984375 191.789062 150.574219 193.378906 150.574219 195.332031 L 150.574219 224.085938 C 150.574219 226.042969 148.984375 227.632812 147.03125 227.632812 L 118.285156 227.632812 C 116.332031 227.632812 114.742188 226.042969 114.742188 224.085938 L 114.742188 195.332031 C 114.734375 193.378906 116.332031 191.789062 118.285156 191.789062 Z M 143.488281 198.875 L 121.8125 198.875 L 121.8125 220.558594 L 143.488281 220.558594 Z M 100.988281 262.71875 C 95.613281 254.371094 91.964844 244.820312 90.546875 234.550781 C 90.253906 232.433594 91.921875 230.539062 94.035156 230.523438 L 197.921875 230.523438 L 197.921875 145.492188 L 43.144531 145.492188 L 43.144531 262.71875 Z M 196.695312 275.988281 C 207.285156 268.363281 215.402344 257.53125 219.625 244.917969 C 220.265625 242.855469 222.328125 241.855469 224.238281 242.546875 C 232.34375 245.476562 241.503906 243.230469 247.34375 236.847656 C 244.472656 233.71875 240.710938 231.46875 236.511719 230.480469 L 236.527344 230.46875 C 234.203125 229.921875 233.050781 227.230469 234.347656 225.160156 C 236.675781 221.46875 237.796875 217.117188 237.613281 212.800781 C 225.417969 212.265625 215.242188 222.097656 215.242188 234.054688 C 215.242188 236.023438 213.667969 237.597656 211.699219 237.597656 L 98.226562 237.597656 C 104.175781 266.527344 129.769531 287.824219 159.921875 287.824219 C 173.667969 287.824219 186.359375 283.441406 196.695312 275.988281 Z M 196.695312 275.988281 " fill-opacity="1" fill-rule="nonzero"/></g><path fill="#e6e6e6" d="M 706.167969 121.855469 C 719.039062 120.507812 731.660156 128.21875 735.949219 141.085938 C 759.988281 138.914062 780.644531 157.828125 780.644531 181.933594 C 780.644531 204.144531 762.992188 222.230469 740.964844 222.917969 L 611.503906 222.933594 C 588.863281 222.933594 570.515625 204.570312 570.515625 181.933594 C 570.515625 165.234375 580.484375 150.875 594.785156 144.484375 C 594.414062 141.886719 594.222656 139.234375 594.222656 136.542969 C 594.222656 105.085938 619.714844 79.570312 651.160156 79.570312 C 677.515625 79.5625 699.699219 97.5 706.167969 121.855469 Z M 706.167969 121.855469 " fill-opacity="1" fill-rule="evenodd"/><path fill="#fcb13b" d="M 614.46875 136.914062 L 700 136.914062 L 700 192.453125 L 614.46875 192.453125 Z M 614.46875 136.914062 " fill-opacity="1" fill-rule="evenodd"/><path fill="#6abdc8" d="M 562.589844 208.785156 L 648.121094 208.785156 L 648.121094 264.308594 L 562.589844 264.308594 Z M 562.589844 208.785156 " fill-opacity="1" fill-rule="evenodd"/><path fill="#cc4342" d="M 666.351562 208.785156 L 751.882812 208.785156 L 751.882812 264.308594 L 666.351562 264.308594 Z M 666.351562 208.785156 " fill-opacity="1" fill-rule="evenodd"/><g clip-path="url(#c32f0ad5de)"><path fill="#000000" d="M 682.898438 224.792969 C 682.898438 222.785156 684.53125 221.152344 686.539062 221.152344 C 688.542969 221.152344 690.164062 222.785156 690.164062 224.792969 L 690.164062 248.308594 C 690.164062 250.316406 688.542969 251.949219 686.539062 251.949219 C 684.53125 251.949219 682.898438 250.316406 682.898438 248.308594 Z M 730.964844 224.792969 C 730.964844 222.785156 732.597656 221.152344 734.601562 221.152344 C 736.609375 221.152344 738.226562 222.785156 738.226562 224.792969 L 738.226562 248.308594 C 738.226562 250.316406 736.609375 251.949219 734.601562 251.949219 C 732.597656 251.949219 730.964844 250.316406 730.964844 248.308594 Z M 714.949219 224.792969 C 714.949219 222.785156 716.566406 221.152344 718.574219 221.152344 C 720.59375 221.152344 722.210938 222.785156 722.210938 224.792969 L 722.210938 248.308594 C 722.210938 250.316406 720.59375 251.949219 718.574219 251.949219 C 716.566406 251.949219 714.949219 250.316406 714.949219 248.308594 Z M 698.929688 224.792969 C 698.929688 222.785156 700.546875 221.152344 702.554688 221.152344 C 704.558594 221.152344 706.191406 222.785156 706.191406 224.792969 L 706.191406 248.308594 C 706.191406 250.316406 704.558594 251.949219 702.554688 251.949219 C 700.546875 251.949219 698.929688 250.316406 698.929688 248.308594 Z M 667.804688 205.152344 L 753.335938 205.152344 C 755.34375 205.152344 756.960938 206.773438 756.960938 208.78125 L 756.960938 215.777344 C 780.972656 204.519531 786.011719 172.332031 766.328125 154.339844 C 758.71875 147.402344 748.425781 143.746094 737.703125 144.691406 C 736.070312 144.828125 734.492188 143.839844 733.953125 142.21875 C 732.125 136.691406 728.503906 132.257812 723.953125 129.3125 C 719.308594 126.316406 713.71875 124.886719 708.074219 125.449219 C 706.285156 125.679688 704.582031 124.554688 704.105469 122.765625 C 698 99.644531 676.902344 83.207031 652.613281 83.207031 C 620.183594 83.207031 595.363281 111.90625 599.824219 143.984375 C 600.042969 145.535156 599.21875 147.117188 597.707031 147.789062 C 575.386719 157.769531 568.601562 186.160156 583.667969 205.15625 L 649.574219 205.15625 C 651.582031 205.15625 653.214844 206.777344 653.214844 208.785156 L 653.214844 219.308594 L 664.160156 219.308594 L 664.160156 208.785156 C 664.167969 206.777344 665.800781 205.152344 667.804688 205.152344 Z M 756.964844 223.667969 L 756.964844 264.324219 C 756.964844 266.332031 755.347656 267.949219 753.339844 267.949219 L 667.804688 267.949219 C 665.800781 267.949219 664.167969 266.332031 664.167969 264.324219 L 664.167969 226.554688 L 653.21875 226.554688 L 653.21875 264.324219 C 653.21875 266.332031 651.585938 267.949219 649.582031 267.949219 L 564.042969 267.949219 C 562.039062 267.949219 560.421875 266.332031 560.421875 264.324219 L 560.421875 208.785156 C 560.421875 206.777344 562.039062 205.15625 564.042969 205.15625 L 574.855469 205.15625 C 561.4375 183.15625 569.429688 154.320312 592.339844 142.351562 C 588.894531 106.761719 616.871094 75.9375 652.613281 75.9375 C 679.152344 75.9375 702.351562 93.195312 710.292969 118.074219 C 723.011719 117.992188 734.714844 125.511719 739.820312 137.304688 C 764.738281 136.449219 785.738281 156.722656 785.738281 181.929688 C 785.738281 200.621094 774.121094 217.136719 756.964844 223.667969 Z M 749.695312 212.425781 L 671.433594 212.425781 L 671.433594 260.675781 L 749.703125 260.675781 L 749.703125 212.425781 Z M 579.152344 224.792969 C 579.152344 222.785156 580.773438 221.152344 582.777344 221.152344 C 584.785156 221.152344 586.417969 222.785156 586.417969 224.792969 L 586.417969 248.308594 C 586.417969 250.316406 584.785156 251.949219 582.777344 251.949219 C 580.773438 251.949219 579.152344 250.316406 579.152344 248.308594 Z M 627.21875 224.792969 C 627.21875 222.785156 628.835938 221.152344 630.84375 221.152344 C 632.847656 221.152344 634.480469 222.785156 634.480469 224.792969 L 634.480469 248.308594 C 634.480469 250.316406 632.847656 251.949219 630.84375 251.949219 C 628.835938 251.949219 627.21875 250.316406 627.21875 248.308594 Z M 611.1875 224.792969 C 611.1875 222.785156 612.820312 221.152344 614.828125 221.152344 C 616.832031 221.152344 618.453125 222.785156 618.453125 224.792969 L 618.453125 248.308594 C 618.453125 250.316406 616.832031 251.949219 614.828125 251.949219 C 612.820312 251.949219 611.1875 250.316406 611.1875 248.308594 Z M 595.171875 224.792969 C 595.171875 222.785156 596.792969 221.152344 598.8125 221.152344 C 600.820312 221.152344 602.4375 222.785156 602.4375 224.792969 L 602.4375 248.308594 C 602.4375 250.316406 600.820312 251.949219 598.8125 251.949219 C 596.792969 251.949219 595.171875 250.316406 595.171875 248.308594 Z M 645.953125 212.425781 L 567.683594 212.425781 L 567.683594 260.675781 L 645.953125 260.675781 Z M 645.015625 172.429688 C 646.609375 173.636719 646.910156 175.921875 645.691406 177.515625 C 644.484375 179.113281 642.199219 179.414062 640.605469 178.191406 L 626.761719 167.582031 C 624.808594 166.097656 624.90625 163.199219 626.800781 161.769531 L 640.605469 151.183594 C 642.199219 149.976562 644.476562 150.277344 645.691406 151.871094 C 646.910156 153.46875 646.609375 155.746094 645.015625 156.957031 L 634.921875 164.695312 Z M 662.542969 150.757812 C 663.546875 149.027344 665.769531 148.433594 667.5 149.4375 C 669.230469 150.441406 669.820312 152.652344 668.816406 154.382812 L 654.832031 178.625 C 653.832031 180.359375 651.605469 180.949219 649.875 179.945312 C 648.144531 178.941406 647.554688 176.730469 648.558594 174.984375 Z M 676.773438 178.191406 C 675.179688 179.414062 672.902344 179.113281 671.691406 177.515625 C 670.46875 175.921875 670.769531 173.640625 672.363281 172.429688 L 682.457031 164.691406 L 672.363281 156.953125 C 670.769531 155.746094 670.46875 153.464844 671.691406 151.867188 C 672.898438 150.273438 675.179688 149.972656 676.773438 151.179688 L 690.578125 161.765625 C 692.472656 163.195312 692.570312 166.09375 690.617188 167.578125 Z M 615.925781 133.289062 L 701.457031 133.289062 C 703.464844 133.289062 705.097656 134.921875 705.097656 136.929688 L 705.097656 192.453125 C 705.097656 194.460938 703.464844 196.097656 701.457031 196.097656 L 615.925781 196.097656 C 613.921875 196.097656 612.289062 194.460938 612.289062 192.453125 L 612.289062 136.929688 C 612.289062 134.921875 613.921875 133.289062 615.925781 133.289062 Z M 697.820312 140.554688 L 619.566406 140.554688 L 619.566406 188.824219 L 697.820312 188.824219 Z M 697.820312 140.554688 " fill-opacity="1" fill-rule="nonzero"/></g><g clip-path="url(#53beee2380)"><path fill="#d2e6fd" d="M 318.984375 151.203125 L 497.253906 151.203125 C 497.917969 151.203125 498.578125 151.269531 499.226562 151.398438 C 499.878906 151.527344 500.511719 151.722656 501.125 151.976562 C 501.738281 152.230469 502.320312 152.542969 502.875 152.910156 C 503.425781 153.28125 503.9375 153.699219 504.40625 154.171875 C 504.875 154.640625 505.296875 155.152344 505.664062 155.703125 C 506.035156 156.257812 506.34375 156.839844 506.601562 157.457031 C 506.855469 158.070312 507.046875 158.703125 507.175781 159.355469 C 507.304688 160.007812 507.371094 160.664062 507.371094 161.332031 L 507.371094 285.070312 C 507.371094 285.734375 507.304688 286.394531 507.175781 287.042969 C 507.046875 287.695312 506.855469 288.332031 506.601562 288.945312 C 506.34375 289.558594 506.035156 290.140625 505.664062 290.695312 C 505.296875 291.246094 504.875 291.757812 504.40625 292.230469 C 503.9375 292.699219 503.425781 293.121094 502.875 293.488281 C 502.320312 293.859375 501.738281 294.171875 501.125 294.425781 C 500.511719 294.679688 499.878906 294.871094 499.226562 295 C 498.578125 295.128906 497.917969 295.195312 497.253906 295.195312 L 318.984375 295.195312 C 318.320312 295.195312 317.660156 295.128906 317.011719 295 C 316.359375 294.871094 315.726562 294.679688 315.113281 294.425781 C 314.5 294.171875 313.914062 293.859375 313.363281 293.488281 C 312.8125 293.121094 312.300781 292.699219 311.832031 292.230469 C 311.359375 291.757812 310.941406 291.246094 310.574219 290.695312 C 310.203125 290.140625 309.890625 289.558594 309.636719 288.945312 C 309.382812 288.332031 309.191406 287.695312 309.0625 287.042969 C 308.933594 286.394531 308.867188 285.734375 308.867188 285.070312 L 308.867188 161.332031 C 308.867188 160.664062 308.933594 160.007812 309.0625 159.355469 C 309.191406 158.703125 309.382812 158.070312 309.636719 157.457031 C 309.890625 156.839844 310.203125 156.257812 310.574219 155.703125 C 310.941406 155.152344 311.359375 154.640625 311.832031 154.171875 C 312.300781 153.699219 312.8125 153.28125 313.363281 152.910156 C 313.914062 152.542969 314.5 152.230469 315.113281 151.976562 C 315.726562 151.722656 316.359375 151.527344 317.011719 151.398438 C 317.660156 151.269531 318.320312 151.203125 318.984375 151.203125 Z M 318.984375 151.203125 " fill-opacity="1" fill-rule="nonzero"/></g><path fill="#93bee5" d="M 321.015625 160.238281 C 321.015625 160.570312 320.953125 160.886719 320.828125 161.191406 C 320.699219 161.496094 320.519531 161.765625 320.289062 162 C 320.054688 162.230469 319.785156 162.410156 319.480469 162.539062 C 319.175781 162.664062 318.859375 162.726562 318.53125 162.726562 C 318.203125 162.726562 317.882812 162.664062 317.582031 162.539062 C 317.277344 162.410156 317.007812 162.230469 316.773438 162 C 316.542969 161.765625 316.363281 161.496094 316.234375 161.191406 C 316.109375 160.886719 316.046875 160.570312 316.046875 160.238281 C 316.046875 159.910156 316.109375 159.59375 316.234375 159.289062 C 316.363281 158.984375 316.542969 158.714844 316.773438 158.480469 C 317.007812 158.246094 317.277344 158.066406 317.582031 157.941406 C 317.882812 157.816406 318.203125 157.75 318.53125 157.75 C 318.859375 157.75 319.175781 157.816406 319.480469 157.941406 C 319.785156 158.066406 320.054688 158.246094 320.289062 158.480469 C 320.519531 158.714844 320.699219 158.984375 320.828125 159.289062 C 320.953125 159.59375 321.015625 159.910156 321.015625 160.238281 Z M 321.015625 160.238281 " fill-opacity="1" fill-rule="nonzero"/><path fill="#93bee5" d="M 328.746094 160.238281 C 328.746094 160.570312 328.683594 160.886719 328.558594 161.191406 C 328.429688 161.496094 328.25 161.765625 328.019531 162 C 327.785156 162.230469 327.515625 162.410156 327.210938 162.539062 C 326.90625 162.664062 326.589844 162.726562 326.261719 162.726562 C 325.933594 162.726562 325.613281 162.664062 325.308594 162.539062 C 325.007812 162.410156 324.738281 162.230469 324.503906 162 C 324.269531 161.765625 324.089844 161.496094 323.964844 161.191406 C 323.839844 160.886719 323.777344 160.570312 323.777344 160.238281 C 323.777344 159.910156 323.839844 159.59375 323.964844 159.289062 C 324.089844 158.984375 324.269531 158.714844 324.503906 158.480469 C 324.738281 158.246094 325.007812 158.066406 325.308594 157.941406 C 325.613281 157.816406 325.933594 157.75 326.261719 157.75 C 326.589844 157.75 326.90625 157.816406 327.210938 157.941406 C 327.515625 158.066406 327.785156 158.246094 328.019531 158.480469 C 328.25 158.714844 328.429688 158.984375 328.558594 159.289062 C 328.683594 159.59375 328.746094 159.910156 328.746094 160.238281 Z M 328.746094 160.238281 " fill-opacity="1" fill-rule="nonzero"/><path fill="#93bee5" d="M 336.476562 160.238281 C 336.476562 160.570312 336.414062 160.886719 336.285156 161.191406 C 336.160156 161.496094 335.980469 161.765625 335.75 162 C 335.515625 162.230469 335.246094 162.410156 334.941406 162.539062 C 334.636719 162.664062 334.320312 162.726562 333.992188 162.726562 C 333.660156 162.726562 333.34375 162.664062 333.039062 162.539062 C 332.734375 162.410156 332.46875 162.230469 332.234375 162 C 332 161.765625 331.820312 161.496094 331.695312 161.191406 C 331.570312 160.886719 331.507812 160.570312 331.507812 160.238281 C 331.507812 159.910156 331.570312 159.59375 331.695312 159.289062 C 331.820312 158.984375 332 158.714844 332.234375 158.480469 C 332.46875 158.246094 332.734375 158.066406 333.039062 157.941406 C 333.34375 157.816406 333.660156 157.75 333.992188 157.75 C 334.320312 157.75 334.636719 157.816406 334.941406 157.941406 C 335.246094 158.066406 335.515625 158.246094 335.75 158.480469 C 335.980469 158.714844 336.160156 158.984375 336.285156 159.289062 C 336.414062 159.59375 336.476562 159.910156 336.476562 160.238281 Z M 336.476562 160.238281 " fill-opacity="1" fill-rule="nonzero"/><path fill="#93bee5" d="M 330.125 180.222656 L 336.753906 180.222656 C 336.972656 180.222656 337.183594 180.265625 337.386719 180.351562 C 337.589844 180.433594 337.769531 180.554688 337.921875 180.710938 C 338.078125 180.863281 338.199219 181.042969 338.28125 181.246094 C 338.367188 181.449219 338.410156 181.664062 338.410156 181.882812 L 338.410156 188.515625 C 338.410156 188.734375 338.367188 188.945312 338.28125 189.148438 C 338.199219 189.351562 338.078125 189.53125 337.921875 189.6875 C 337.769531 189.84375 337.589844 189.964844 337.386719 190.046875 C 337.183594 190.132812 336.972656 190.171875 336.753906 190.171875 L 330.125 190.171875 C 329.90625 190.171875 329.695312 190.132812 329.492188 190.046875 C 329.289062 189.964844 329.109375 189.84375 328.953125 189.6875 C 328.800781 189.53125 328.679688 189.351562 328.597656 189.148438 C 328.511719 188.945312 328.46875 188.734375 328.46875 188.515625 L 328.46875 181.882812 C 328.46875 181.664062 328.511719 181.449219 328.597656 181.246094 C 328.679688 181.042969 328.800781 180.863281 328.953125 180.710938 C 329.109375 180.554688 329.289062 180.433594 329.492188 180.351562 C 329.695312 180.265625 329.90625 180.222656 330.125 180.222656 Z M 330.125 180.222656 " fill-opacity="1" fill-rule="nonzero"/><path fill="#a1ccf4" d="M 345.035156 180.222656 L 380.449219 180.222656 C 380.667969 180.222656 380.878906 180.265625 381.082031 180.351562 C 381.285156 180.433594 381.464844 180.554688 381.621094 180.710938 C 381.777344 180.863281 381.894531 181.042969 381.980469 181.246094 C 382.0625 181.449219 382.105469 181.664062 382.105469 181.882812 L 382.105469 188.515625 C 382.105469 188.734375 382.0625 188.945312 381.980469 189.148438 C 381.894531 189.351562 381.777344 189.53125 381.621094 189.6875 C 381.464844 189.84375 381.285156 189.964844 381.082031 190.046875 C 380.878906 190.132812 380.667969 190.171875 380.449219 190.171875 L 345.035156 190.171875 C 344.816406 190.171875 344.605469 190.132812 344.402344 190.046875 C 344.199219 189.964844 344.019531 189.84375 343.863281 189.6875 C 343.707031 189.53125 343.589844 189.351562 343.503906 189.148438 C 343.421875 188.945312 343.378906 188.734375 343.378906 188.515625 L 343.378906 181.882812 C 343.378906 181.664062 343.421875 181.449219 343.503906 181.246094 C 343.589844 181.042969 343.707031 180.863281 343.863281 180.710938 C 344.019531 180.554688 344.199219 180.433594 344.402344 180.351562 C 344.605469 180.265625 344.816406 180.222656 345.035156 180.222656 Z M 345.035156 180.222656 " fill-opacity="1" fill-rule="nonzero"/><path fill="#a1ccf4" d="M 345.035156 195.699219 L 380.449219 195.699219 C 380.667969 195.699219 380.878906 195.742188 381.082031 195.828125 C 381.285156 195.910156 381.464844 196.03125 381.621094 196.1875 C 381.777344 196.34375 381.894531 196.519531 381.980469 196.722656 C 382.0625 196.925781 382.105469 197.140625 382.105469 197.359375 L 382.105469 203.992188 C 382.105469 204.210938 382.0625 204.421875 381.980469 204.625 C 381.894531 204.828125 381.777344 205.007812 381.621094 205.164062 C 381.464844 205.320312 381.285156 205.441406 381.082031 205.523438 C 380.878906 205.609375 380.667969 205.648438 380.449219 205.648438 L 345.035156 205.648438 C 344.816406 205.648438 344.605469 205.609375 344.402344 205.523438 C 344.199219 205.441406 344.019531 205.320312 343.863281 205.164062 C 343.707031 205.007812 343.589844 204.828125 343.503906 204.625 C 343.421875 204.421875 343.378906 204.210938 343.378906 203.992188 L 343.378906 197.359375 C 343.378906 197.140625 343.421875 196.925781 343.503906 196.722656 C 343.589844 196.519531 343.707031 196.34375 343.863281 196.1875 C 344.019531 196.03125 344.199219 195.910156 344.402344 195.828125 C 344.605469 195.742188 344.816406 195.699219 345.035156 195.699219 Z M 345.035156 195.699219 " fill-opacity="1" fill-rule="nonzero"/><path fill="#8181e2" d="M 361.632812 210.625 L 397.046875 210.625 C 397.265625 210.625 397.476562 210.667969 397.679688 210.75 C 397.882812 210.835938 398.0625 210.957031 398.21875 211.109375 C 398.375 211.265625 398.492188 211.445312 398.578125 211.648438 C 398.660156 211.851562 398.703125 212.0625 398.703125 212.285156 L 398.703125 218.917969 C 398.703125 219.136719 398.660156 219.347656 398.578125 219.550781 C 398.492188 219.753906 398.375 219.933594 398.21875 220.089844 C 398.0625 220.246094 397.882812 220.363281 397.679688 220.449219 C 397.476562 220.53125 397.265625 220.574219 397.046875 220.574219 L 361.632812 220.574219 C 361.414062 220.574219 361.203125 220.53125 361 220.449219 C 360.796875 220.363281 360.617188 220.246094 360.460938 220.089844 C 360.304688 219.933594 360.1875 219.753906 360.101562 219.550781 C 360.019531 219.347656 359.976562 219.136719 359.976562 218.917969 L 359.976562 212.285156 C 359.976562 212.0625 360.019531 211.851562 360.101562 211.648438 C 360.1875 211.445312 360.304688 211.265625 360.460938 211.109375 C 360.617188 210.957031 360.796875 210.835938 361 210.75 C 361.203125 210.667969 361.414062 210.625 361.632812 210.625 Z M 361.632812 210.625 " fill-opacity="1" fill-rule="nonzero"/><path fill="#8181e2" d="M 383.347656 225.550781 L 409.347656 225.550781 C 409.511719 225.550781 409.671875 225.582031 409.824219 225.644531 C 409.976562 225.707031 410.109375 225.796875 410.226562 225.914062 C 410.34375 226.03125 410.433594 226.164062 410.496094 226.316406 C 410.558594 226.46875 410.589844 226.628906 410.589844 226.792969 L 410.589844 234.253906 C 410.589844 234.417969 410.558594 234.578125 410.496094 234.730469 C 410.433594 234.882812 410.34375 235.019531 410.226562 235.132812 C 410.109375 235.25 409.976562 235.339844 409.824219 235.402344 C 409.671875 235.46875 409.511719 235.5 409.347656 235.5 L 383.347656 235.5 C 383.183594 235.5 383.023438 235.46875 382.871094 235.402344 C 382.71875 235.339844 382.585938 235.25 382.46875 235.132812 C 382.351562 235.019531 382.261719 234.882812 382.199219 234.730469 C 382.136719 234.578125 382.105469 234.417969 382.105469 234.253906 L 382.105469 226.792969 C 382.105469 226.628906 382.136719 226.46875 382.199219 226.316406 C 382.261719 226.164062 382.351562 226.03125 382.46875 225.914062 C 382.585938 225.796875 382.71875 225.707031 382.871094 225.644531 C 383.023438 225.582031 383.183594 225.550781 383.347656 225.550781 Z M 383.347656 225.550781 " fill-opacity="1" fill-rule="nonzero"/><path fill="#6dcdb1" d="M 439.082031 225.550781 L 485.835938 225.550781 C 486.054688 225.550781 486.265625 225.589844 486.46875 225.675781 C 486.671875 225.757812 486.851562 225.878906 487.007812 226.035156 C 487.164062 226.191406 487.28125 226.371094 487.367188 226.574219 C 487.449219 226.777344 487.492188 226.988281 487.492188 227.207031 L 487.492188 233.839844 C 487.492188 234.058594 487.449219 234.273438 487.367188 234.476562 C 487.28125 234.679688 487.164062 234.855469 487.007812 235.011719 C 486.851562 235.167969 486.671875 235.289062 486.46875 235.371094 C 486.265625 235.457031 486.054688 235.5 485.835938 235.5 L 439.082031 235.5 C 438.863281 235.5 438.652344 235.457031 438.449219 235.371094 C 438.246094 235.289062 438.066406 235.167969 437.910156 235.011719 C 437.757812 234.855469 437.636719 234.679688 437.550781 234.476562 C 437.46875 234.273438 437.425781 234.058594 437.425781 233.839844 L 437.425781 227.207031 C 437.425781 226.988281 437.46875 226.777344 437.550781 226.574219 C 437.636719 226.371094 437.757812 226.191406 437.910156 226.035156 C 438.066406 225.878906 438.246094 225.757812 438.449219 225.675781 C 438.652344 225.589844 438.863281 225.550781 439.082031 225.550781 Z M 439.082031 225.550781 " fill-opacity="1" fill-rule="nonzero"/><path fill="#eaf3fd" d="M 405.890625 210.625 L 431.171875 210.625 C 431.390625 210.625 431.601562 210.667969 431.804688 210.75 C 432.007812 210.835938 432.1875 210.957031 432.34375 211.109375 C 432.5 211.265625 432.617188 211.445312 432.703125 211.648438 C 432.785156 211.851562 432.828125 212.0625 432.828125 212.285156 L 432.828125 218.917969 C 432.828125 219.136719 432.785156 219.347656 432.703125 219.550781 C 432.617188 219.753906 432.5 219.933594 432.34375 220.089844 C 432.1875 220.246094 432.007812 220.363281 431.804688 220.449219 C 431.601562 220.53125 431.390625 220.574219 431.171875 220.574219 L 405.890625 220.574219 C 405.671875 220.574219 405.460938 220.53125 405.257812 220.449219 C 405.054688 220.363281 404.875 220.246094 404.71875 220.089844 C 404.566406 219.933594 404.445312 219.753906 404.359375 219.550781 C 404.277344 219.347656 404.234375 219.136719 404.234375 218.917969 L 404.234375 212.285156 C 404.234375 212.0625 404.277344 211.851562 404.359375 211.648438 C 404.445312 211.445312 404.566406 211.265625 404.71875 211.109375 C 404.875 210.957031 405.054688 210.835938 405.257812 210.75 C 405.460938 210.667969 405.671875 210.625 405.890625 210.625 Z M 405.890625 210.625 " fill-opacity="1" fill-rule="nonzero"/><path fill="#a1ccf4" d="M 416.214844 225.335938 L 431.519531 225.335938 C 431.691406 225.335938 431.859375 225.367188 432.019531 225.433594 C 432.179688 225.5 432.320312 225.59375 432.445312 225.71875 C 432.566406 225.839844 432.660156 225.984375 432.730469 226.144531 C 432.796875 226.304688 432.828125 226.472656 432.828125 226.644531 L 432.828125 233.972656 C 432.828125 234.148438 432.796875 234.316406 432.730469 234.476562 C 432.664062 234.636719 432.566406 234.777344 432.445312 234.898438 C 432.320312 235.023438 432.179688 235.117188 432.019531 235.183594 C 431.859375 235.25 431.691406 235.285156 431.519531 235.285156 L 416.214844 235.285156 C 416.042969 235.285156 415.875 235.25 415.714844 235.183594 C 415.554688 235.117188 415.414062 235.023438 415.289062 234.898438 C 415.167969 234.777344 415.074219 234.636719 415.007812 234.476562 C 414.941406 234.316406 414.90625 234.148438 414.90625 233.972656 L 414.90625 226.644531 C 414.90625 226.472656 414.941406 226.304688 415.007812 226.144531 C 415.074219 225.984375 415.167969 225.839844 415.289062 225.71875 C 415.414062 225.59375 415.554688 225.5 415.714844 225.433594 C 415.875 225.367188 416.042969 225.335938 416.214844 225.335938 Z M 416.214844 225.335938 " fill-opacity="1" fill-rule="nonzero"/><path fill="#6dcdb1" d="M 439.082031 210.070312 L 485.558594 210.070312 C 485.777344 210.070312 485.992188 210.113281 486.195312 210.199219 C 486.394531 210.28125 486.574219 210.402344 486.730469 210.558594 C 486.886719 210.714844 487.003906 210.894531 487.089844 211.097656 C 487.175781 211.300781 487.214844 211.511719 487.214844 211.730469 L 487.214844 218.363281 C 487.214844 218.582031 487.175781 218.792969 487.089844 218.996094 C 487.003906 219.199219 486.886719 219.378906 486.730469 219.535156 C 486.574219 219.691406 486.394531 219.8125 486.195312 219.894531 C 485.992188 219.980469 485.777344 220.023438 485.558594 220.023438 L 439.082031 220.023438 C 438.863281 220.023438 438.652344 219.980469 438.449219 219.894531 C 438.246094 219.8125 438.066406 219.691406 437.910156 219.535156 C 437.757812 219.378906 437.636719 219.199219 437.550781 218.996094 C 437.46875 218.792969 437.425781 218.582031 437.425781 218.363281 L 437.425781 211.730469 C 437.425781 211.511719 437.46875 211.300781 437.550781 211.097656 C 437.636719 210.894531 437.757812 210.714844 437.910156 210.558594 C 438.066406 210.402344 438.246094 210.28125 438.449219 210.199219 C 438.652344 210.113281 438.863281 210.070312 439.082031 210.070312 Z M 439.082031 210.070312 " fill-opacity="1" fill-rule="nonzero"/><path fill="#a1ccf4" d="M 389.292969 195.148438 L 424.707031 195.148438 C 424.925781 195.148438 425.136719 195.191406 425.339844 195.273438 C 425.542969 195.359375 425.722656 195.476562 425.878906 195.632812 C 426.035156 195.789062 426.152344 195.96875 426.238281 196.171875 C 426.320312 196.375 426.363281 196.585938 426.363281 196.804688 L 426.363281 203.4375 C 426.363281 203.660156 426.320312 203.871094 426.238281 204.074219 C 426.152344 204.277344 426.035156 204.457031 425.878906 204.613281 C 425.722656 204.765625 425.542969 204.886719 425.339844 204.972656 C 425.136719 205.054688 424.925781 205.097656 424.707031 205.097656 L 389.292969 205.097656 C 389.074219 205.097656 388.863281 205.054688 388.660156 204.972656 C 388.457031 204.886719 388.277344 204.765625 388.121094 204.613281 C 387.964844 204.457031 387.847656 204.277344 387.761719 204.074219 C 387.679688 203.871094 387.636719 203.660156 387.636719 203.4375 L 387.636719 196.804688 C 387.636719 196.585938 387.679688 196.375 387.761719 196.171875 C 387.847656 195.96875 387.964844 195.789062 388.121094 195.632812 C 388.277344 195.476562 388.457031 195.359375 388.660156 195.273438 C 388.863281 195.191406 389.074219 195.148438 389.292969 195.148438 Z M 389.292969 195.148438 " fill-opacity="1" fill-rule="nonzero"/><path fill="#a1ccf4" d="M 345.035156 240.472656 L 380.449219 240.472656 C 380.667969 240.472656 380.878906 240.515625 381.082031 240.597656 C 381.285156 240.683594 381.464844 240.804688 381.621094 240.957031 C 381.777344 241.113281 381.894531 241.292969 381.980469 241.496094 C 382.0625 241.699219 382.105469 241.910156 382.105469 242.132812 L 382.105469 248.765625 C 382.105469 248.984375 382.0625 249.195312 381.980469 249.398438 C 381.894531 249.601562 381.777344 249.78125 381.621094 249.9375 C 381.464844 250.09375 381.285156 250.210938 381.082031 250.296875 C 380.878906 250.378906 380.667969 250.421875 380.449219 250.421875 L 345.035156 250.421875 C 344.816406 250.421875 344.605469 250.378906 344.402344 250.296875 C 344.199219 250.210938 344.019531 250.09375 343.863281 249.9375 C 343.707031 249.78125 343.589844 249.601562 343.503906 249.398438 C 343.421875 249.195312 343.378906 248.984375 343.378906 248.765625 L 343.378906 242.132812 C 343.378906 241.910156 343.421875 241.699219 343.503906 241.496094 C 343.589844 241.292969 343.707031 241.113281 343.863281 240.960938 C 344.019531 240.804688 344.199219 240.683594 344.402344 240.597656 C 344.605469 240.515625 344.816406 240.472656 345.035156 240.472656 Z M 345.035156 240.472656 " fill-opacity="1" fill-rule="nonzero"/><path fill="#93bee5" d="M 345.035156 254.84375 L 380.449219 254.84375 C 380.667969 254.84375 380.878906 254.886719 381.082031 254.972656 C 381.285156 255.054688 381.464844 255.175781 381.621094 255.332031 C 381.777344 255.484375 381.894531 255.664062 381.980469 255.867188 C 382.0625 256.070312 382.105469 256.28125 382.105469 256.503906 L 382.105469 263.136719 C 382.105469 263.355469 382.0625 263.566406 381.980469 263.769531 C 381.894531 263.972656 381.777344 264.152344 381.621094 264.308594 C 381.464844 264.464844 381.285156 264.582031 381.082031 264.667969 C 380.878906 264.753906 380.667969 264.792969 380.449219 264.792969 L 345.035156 264.792969 C 344.816406 264.792969 344.605469 264.753906 344.402344 264.667969 C 344.199219 264.582031 344.019531 264.464844 343.863281 264.308594 C 343.707031 264.152344 343.589844 263.972656 343.503906 263.769531 C 343.421875 263.566406 343.378906 263.355469 343.378906 263.136719 L 343.378906 256.503906 C 343.378906 256.28125 343.421875 256.070312 343.503906 255.867188 C 343.589844 255.664062 343.707031 255.484375 343.863281 255.332031 C 344.019531 255.175781 344.199219 255.054688 344.402344 254.972656 C 344.605469 254.886719 344.816406 254.84375 345.035156 254.84375 Z M 345.035156 254.84375 " fill-opacity="1" fill-rule="nonzero"/><path fill="#8181e2" d="M 361.632812 270.046875 L 397.046875 270.046875 C 397.265625 270.046875 397.476562 270.085938 397.679688 270.171875 C 397.882812 270.253906 398.0625 270.375 398.21875 270.53125 C 398.375 270.6875 398.492188 270.867188 398.578125 271.070312 C 398.660156 271.273438 398.703125 271.484375 398.703125 271.703125 L 398.703125 278.335938 C 398.703125 278.554688 398.660156 278.769531 398.578125 278.972656 C 398.492188 279.175781 398.375 279.351562 398.21875 279.507812 C 398.0625 279.664062 397.882812 279.785156 397.679688 279.867188 C 397.476562 279.953125 397.265625 279.996094 397.046875 279.996094 L 361.632812 279.996094 C 361.414062 279.996094 361.203125 279.953125 361 279.867188 C 360.796875 279.785156 360.617188 279.664062 360.460938 279.507812 C 360.304688 279.351562 360.1875 279.175781 360.101562 278.972656 C 360.019531 278.769531 359.976562 278.554688 359.976562 278.335938 L 359.976562 271.703125 C 359.976562 271.484375 360.019531 271.273438 360.101562 271.070312 C 360.1875 270.867188 360.304688 270.6875 360.460938 270.53125 C 360.617188 270.375 360.796875 270.253906 361 270.171875 C 361.203125 270.085938 361.414062 270.046875 361.632812 270.046875 Z M 361.632812 270.046875 " fill-opacity="1" fill-rule="nonzero"/><path fill="#a1ccf4" d="M 405.890625 270.046875 L 430.238281 270.046875 C 430.457031 270.046875 430.667969 270.085938 430.871094 270.171875 C 431.074219 270.253906 431.253906 270.375 431.410156 270.53125 C 431.566406 270.6875 431.683594 270.867188 431.769531 271.070312 C 431.851562 271.273438 431.894531 271.484375 431.894531 271.703125 L 431.894531 278.335938 C 431.894531 278.554688 431.851562 278.769531 431.769531 278.972656 C 431.683594 279.175781 431.566406 279.351562 431.410156 279.507812 C 431.253906 279.664062 431.074219 279.785156 430.871094 279.867188 C 430.667969 279.953125 430.457031 279.996094 430.238281 279.996094 L 405.890625 279.996094 C 405.671875 279.996094 405.460938 279.953125 405.257812 279.867188 C 405.054688 279.785156 404.875 279.664062 404.71875 279.507812 C 404.566406 279.351562 404.445312 279.175781 404.359375 278.972656 C 404.277344 278.769531 404.234375 278.554688 404.234375 278.335938 L 404.234375 271.703125 C 404.234375 271.484375 404.277344 271.273438 404.359375 271.070312 C 404.445312 270.867188 404.566406 270.6875 404.71875 270.53125 C 404.875 270.375 405.054688 270.253906 405.257812 270.171875 C 405.460938 270.085938 405.671875 270.046875 405.890625 270.046875 Z M 405.890625 270.046875 " fill-opacity="1" fill-rule="nonzero"/><path fill="#6dcdb1" d="M 439.082031 270.046875 L 485.558594 270.046875 C 485.777344 270.046875 485.992188 270.085938 486.195312 270.171875 C 486.394531 270.253906 486.574219 270.375 486.730469 270.53125 C 486.886719 270.6875 487.003906 270.867188 487.089844 271.070312 C 487.175781 271.273438 487.214844 271.484375 487.214844 271.703125 L 487.214844 278.335938 C 487.214844 278.554688 487.175781 278.769531 487.089844 278.972656 C 487.003906 279.175781 486.886719 279.351562 486.730469 279.507812 C 486.574219 279.664062 486.394531 279.785156 486.195312 279.867188 C 485.992188 279.953125 485.777344 279.996094 485.558594 279.996094 L 439.082031 279.996094 C 438.863281 279.996094 438.652344 279.953125 438.449219 279.867188 C 438.246094 279.785156 438.066406 279.664062 437.910156 279.507812 C 437.757812 279.351562 437.636719 279.175781 437.550781 278.972656 C 437.46875 278.769531 437.425781 278.554688 437.425781 278.335938 L 437.425781 271.703125 C 437.425781 271.484375 437.46875 271.273438 437.550781 271.070312 C 437.636719 270.867188 437.757812 270.6875 437.910156 270.53125 C 438.066406 270.375 438.246094 270.253906 438.449219 270.171875 C 438.652344 270.085938 438.863281 270.046875 439.082031 270.046875 Z M 439.082031 270.046875 " fill-opacity="1" fill-rule="nonzero"/><path fill="#93bee5" d="M 389.292969 254.84375 L 424.707031 254.84375 C 424.925781 254.84375 425.136719 254.886719 425.339844 254.972656 C 425.542969 255.054688 425.722656 255.175781 425.878906 255.332031 C 426.035156 255.484375 426.152344 255.664062 426.238281 255.867188 C 426.320312 256.070312 426.363281 256.28125 426.363281 256.503906 L 426.363281 263.136719 C 426.363281 263.355469 426.320312 263.566406 426.238281 263.769531 C 426.152344 263.972656 426.035156 264.152344 425.878906 264.308594 C 425.722656 264.464844 425.542969 264.582031 425.339844 264.667969 C 425.136719 264.753906 424.925781 264.792969 424.707031 264.792969 L 389.292969 264.792969 C 389.074219 264.792969 388.863281 264.753906 388.660156 264.667969 C 388.457031 264.582031 388.277344 264.464844 388.121094 264.308594 C 387.964844 264.152344 387.847656 263.972656 387.761719 263.769531 C 387.679688 263.566406 387.636719 263.355469 387.636719 263.136719 L 387.636719 256.503906 C 387.636719 256.28125 387.679688 256.070312 387.761719 255.867188 C 387.847656 255.664062 387.964844 255.484375 388.121094 255.332031 C 388.277344 255.175781 388.457031 255.054688 388.660156 254.972656 C 388.863281 254.886719 389.074219 254.84375 389.292969 254.84375 Z M 389.292969 254.84375 " fill-opacity="1" fill-rule="nonzero"/><path fill="#93bee5" d="M 330.125 195.148438 L 336.753906 195.148438 C 336.972656 195.148438 337.183594 195.191406 337.386719 195.273438 C 337.589844 195.359375 337.769531 195.476562 337.921875 195.632812 C 338.078125 195.789062 338.199219 195.96875 338.28125 196.171875 C 338.367188 196.375 338.410156 196.585938 338.410156 196.804688 L 338.410156 203.4375 C 338.410156 203.660156 338.367188 203.871094 338.28125 204.074219 C 338.199219 204.277344 338.078125 204.457031 337.921875 204.613281 C 337.769531 204.765625 337.589844 204.886719 337.386719 204.972656 C 337.183594 205.054688 336.972656 205.097656 336.753906 205.097656 L 330.125 205.097656 C 329.90625 205.097656 329.695312 205.054688 329.492188 204.972656 C 329.289062 204.886719 329.109375 204.765625 328.953125 204.613281 C 328.800781 204.457031 328.679688 204.277344 328.597656 204.074219 C 328.511719 203.871094 328.46875 203.660156 328.46875 203.4375 L 328.46875 196.804688 C 328.46875 196.585938 328.511719 196.375 328.597656 196.171875 C 328.679688 195.96875 328.800781 195.789062 328.953125 195.632812 C 329.109375 195.476562 329.289062 195.359375 329.492188 195.273438 C 329.695312 195.191406 329.90625 195.148438 330.125 195.148438 Z M 330.125 195.148438 " fill-opacity="1" fill-rule="nonzero"/><path fill="#93bee5" d="M 330.125 210.070312 L 336.753906 210.070312 C 336.972656 210.070312 337.183594 210.113281 337.386719 210.199219 C 337.589844 210.28125 337.769531 210.402344 337.921875 210.558594 C 338.078125 210.714844 338.199219 210.894531 338.28125 211.097656 C 338.367188 211.300781 338.410156 211.511719 338.410156 211.730469 L 338.410156 218.363281 C 338.410156 218.582031 338.367188 218.792969 338.28125 218.996094 C 338.199219 219.199219 338.078125 219.378906 337.921875 219.535156 C 337.769531 219.691406 337.589844 219.8125 337.386719 219.894531 C 337.183594 219.980469 336.972656 220.023438 336.753906 220.023438 L 330.125 220.023438 C 329.90625 220.023438 329.695312 219.980469 329.492188 219.894531 C 329.289062 219.8125 329.109375 219.691406 328.953125 219.535156 C 328.800781 219.378906 328.679688 219.199219 328.597656 218.996094 C 328.511719 218.792969 328.46875 218.582031 328.46875 218.363281 L 328.46875 211.730469 C 328.46875 211.511719 328.511719 211.300781 328.597656 211.097656 C 328.679688 210.894531 328.800781 210.714844 328.953125 210.558594 C 329.109375 210.402344 329.289062 210.28125 329.492188 210.199219 C 329.695312 210.113281 329.90625 210.070312 330.125 210.070312 Z M 330.125 210.070312 " fill-opacity="1" fill-rule="nonzero"/><path fill="#93bee5" d="M 330.125 224.996094 L 336.753906 224.996094 C 336.972656 224.996094 337.183594 225.039062 337.386719 225.121094 C 337.589844 225.207031 337.769531 225.328125 337.921875 225.480469 C 338.078125 225.636719 338.199219 225.816406 338.28125 226.019531 C 338.367188 226.222656 338.410156 226.433594 338.410156 226.65625 L 338.410156 233.289062 C 338.410156 233.507812 338.367188 233.71875 338.28125 233.921875 C 338.199219 234.125 338.078125 234.304688 337.921875 234.460938 C 337.769531 234.617188 337.589844 234.734375 337.386719 234.820312 C 337.183594 234.902344 336.972656 234.945312 336.753906 234.945312 L 330.125 234.945312 C 329.90625 234.945312 329.695312 234.902344 329.492188 234.820312 C 329.289062 234.734375 329.109375 234.617188 328.953125 234.460938 C 328.800781 234.304688 328.679688 234.125 328.597656 233.921875 C 328.511719 233.71875 328.46875 233.507812 328.46875 233.289062 L 328.46875 226.65625 C 328.46875 226.433594 328.511719 226.222656 328.597656 226.019531 C 328.679688 225.816406 328.800781 225.636719 328.953125 225.480469 C 329.109375 225.328125 329.289062 225.207031 329.492188 225.121094 C 329.695312 225.039062 329.90625 224.996094 330.125 224.996094 Z M 330.125 224.996094 " fill-opacity="1" fill-rule="nonzero"/><path fill="#93bee5" d="M 330.125 239.921875 L 336.753906 239.921875 C 336.972656 239.921875 337.183594 239.960938 337.386719 240.046875 C 337.589844 240.132812 337.769531 240.25 337.921875 240.40625 C 338.078125 240.5625 338.199219 240.742188 338.28125 240.945312 C 338.367188 241.148438 338.410156 241.359375 338.410156 241.578125 L 338.410156 248.210938 C 338.410156 248.429688 338.367188 248.644531 338.28125 248.847656 C 338.199219 249.050781 338.078125 249.230469 337.921875 249.382812 C 337.769531 249.539062 337.589844 249.660156 337.386719 249.742188 C 337.183594 249.828125 336.972656 249.871094 336.753906 249.871094 L 330.125 249.871094 C 329.90625 249.871094 329.695312 249.828125 329.492188 249.742188 C 329.289062 249.660156 329.109375 249.539062 328.953125 249.382812 C 328.800781 249.230469 328.679688 249.050781 328.597656 248.847656 C 328.511719 248.644531 328.46875 248.429688 328.46875 248.210938 L 328.46875 241.578125 C 328.46875 241.359375 328.511719 241.148438 328.597656 240.945312 C 328.679688 240.742188 328.800781 240.5625 328.953125 240.40625 C 329.109375 240.25 329.289062 240.132812 329.492188 240.046875 C 329.695312 239.960938 329.90625 239.921875 330.125 239.921875 Z M 330.125 239.921875 " fill-opacity="1" fill-rule="nonzero"/><path fill="#93bee5" d="M 330.125 254.84375 L 336.753906 254.84375 C 336.972656 254.84375 337.183594 254.886719 337.386719 254.972656 C 337.589844 255.054688 337.769531 255.175781 337.921875 255.332031 C 338.078125 255.484375 338.199219 255.664062 338.28125 255.867188 C 338.367188 256.070312 338.410156 256.28125 338.410156 256.503906 L 338.410156 263.136719 C 338.410156 263.355469 338.367188 263.566406 338.28125 263.769531 C 338.199219 263.972656 338.078125 264.152344 337.921875 264.308594 C 337.769531 264.464844 337.589844 264.582031 337.386719 264.667969 C 337.183594 264.753906 336.972656 264.792969 336.753906 264.792969 L 330.125 264.792969 C 329.90625 264.792969 329.695312 264.753906 329.492188 264.667969 C 329.289062 264.582031 329.109375 264.464844 328.953125 264.308594 C 328.800781 264.152344 328.679688 263.972656 328.597656 263.769531 C 328.511719 263.566406 328.46875 263.355469 328.46875 263.136719 L 328.46875 256.503906 C 328.46875 256.28125 328.511719 256.070312 328.597656 255.867188 C 328.679688 255.664062 328.800781 255.484375 328.953125 255.332031 C 329.109375 255.175781 329.289062 255.054688 329.492188 254.972656 C 329.695312 254.886719 329.90625 254.84375 330.125 254.84375 Z M 330.125 254.84375 " fill-opacity="1" fill-rule="nonzero"/><path fill="#93bee5" d="M 330.125 269.769531 L 336.753906 269.769531 C 336.972656 269.769531 337.183594 269.8125 337.386719 269.894531 C 337.589844 269.980469 337.769531 270.097656 337.921875 270.253906 C 338.078125 270.410156 338.199219 270.589844 338.28125 270.792969 C 338.367188 270.996094 338.410156 271.207031 338.410156 271.425781 L 338.410156 278.058594 C 338.410156 278.28125 338.367188 278.492188 338.28125 278.695312 C 338.199219 278.898438 338.078125 279.078125 337.921875 279.234375 C 337.769531 279.386719 337.589844 279.507812 337.386719 279.59375 C 337.183594 279.675781 336.972656 279.71875 336.753906 279.71875 L 330.125 279.71875 C 329.90625 279.71875 329.695312 279.675781 329.492188 279.59375 C 329.289062 279.507812 329.109375 279.386719 328.953125 279.234375 C 328.800781 279.078125 328.679688 278.898438 328.597656 278.695312 C 328.511719 278.492188 328.46875 278.28125 328.46875 278.058594 L 328.46875 271.425781 C 328.46875 271.207031 328.511719 270.996094 328.597656 270.792969 C 328.679688 270.589844 328.800781 270.410156 328.953125 270.253906 C 329.109375 270.097656 329.289062 269.980469 329.492188 269.894531 C 329.695312 269.8125 329.90625 269.769531 330.125 269.769531 Z M 330.125 269.769531 " fill-opacity="1" fill-rule="nonzero"/><path fill="#93bee5" d="M 393.523438 157.75 L 422.71875 157.75 C 422.960938 157.75 423.191406 157.796875 423.414062 157.890625 C 423.636719 157.984375 423.832031 158.113281 424.003906 158.285156 C 424.175781 158.457031 424.304688 158.652344 424.398438 158.875 C 424.488281 159.097656 424.535156 159.332031 424.535156 159.570312 C 424.535156 159.8125 424.488281 160.046875 424.398438 160.269531 C 424.304688 160.492188 424.175781 160.6875 424.003906 160.859375 C 423.832031 161.03125 423.636719 161.160156 423.414062 161.253906 C 423.191406 161.347656 422.960938 161.390625 422.71875 161.390625 L 393.523438 161.390625 C 393.285156 161.390625 393.050781 161.347656 392.828125 161.253906 C 392.605469 161.160156 392.410156 161.03125 392.238281 160.859375 C 392.070312 160.6875 391.9375 160.492188 391.84375 160.269531 C 391.753906 160.046875 391.707031 159.8125 391.707031 159.570312 C 391.707031 159.332031 391.753906 159.097656 391.84375 158.875 C 391.9375 158.652344 392.070312 158.457031 392.238281 158.285156 C 392.410156 158.113281 392.605469 157.984375 392.828125 157.890625 C 393.050781 157.796875 393.285156 157.75 393.523438 157.75 Z M 393.523438 157.75 " fill-opacity="1" fill-rule="nonzero"/><path fill="#8f8f8f" d="M 476.503906 136.648438 C 475.789062 136.648438 475.078125 136.613281 474.367188 136.542969 C 473.65625 136.472656 472.953125 136.367188 472.253906 136.230469 C 471.554688 136.089844 470.863281 135.914062 470.179688 135.707031 C 469.496094 135.5 468.824219 135.261719 468.164062 134.988281 C 467.503906 134.714844 466.863281 134.410156 466.230469 134.070312 C 465.601562 133.734375 464.992188 133.367188 464.398438 132.972656 C 463.804688 132.574219 463.230469 132.148438 462.679688 131.695312 C 462.128906 131.242188 461.601562 130.765625 461.097656 130.257812 C 460.589844 129.753906 460.113281 129.226562 459.660156 128.671875 C 459.207031 128.121094 458.78125 127.546875 458.386719 126.953125 C 457.988281 126.359375 457.625 125.746094 457.285156 125.117188 C 456.949219 124.488281 456.644531 123.84375 456.371094 123.183594 C 456.097656 122.523438 455.859375 121.851562 455.652344 121.167969 C 455.445312 120.484375 455.273438 119.789062 455.132812 119.089844 C 454.992188 118.390625 454.886719 117.683594 454.820312 116.972656 C 454.75 116.261719 454.714844 115.550781 454.714844 114.835938 C 454.714844 114.121094 454.75 113.40625 454.820312 112.695312 C 454.886719 111.984375 454.992188 111.28125 455.132812 110.578125 C 455.273438 109.878906 455.445312 109.1875 455.652344 108.503906 C 455.859375 107.820312 456.097656 107.148438 456.371094 106.488281 C 456.644531 105.828125 456.949219 105.183594 457.285156 104.550781 C 457.625 103.921875 457.988281 103.308594 458.386719 102.714844 C 458.78125 102.121094 459.207031 101.550781 459.660156 100.996094 C 460.113281 100.445312 460.589844 99.914062 461.097656 99.410156 C 461.601562 98.90625 462.128906 98.425781 462.679688 97.972656 C 463.230469 97.519531 463.804688 97.09375 464.398438 96.699219 C 464.992188 96.300781 465.601562 95.933594 466.230469 95.597656 C 466.863281 95.261719 467.503906 94.957031 468.164062 94.683594 C 468.824219 94.410156 469.496094 94.167969 470.179688 93.960938 C 470.863281 93.753906 471.554688 93.582031 472.253906 93.441406 C 472.953125 93.300781 473.65625 93.195312 474.367188 93.125 C 475.078125 93.058594 475.789062 93.023438 476.503906 93.023438 C 477.21875 93.023438 477.929688 93.058594 478.640625 93.125 C 479.351562 93.195312 480.054688 93.300781 480.753906 93.441406 C 481.453125 93.582031 482.144531 93.753906 482.828125 93.960938 C 483.511719 94.167969 484.183594 94.410156 484.84375 94.683594 C 485.5 94.957031 486.144531 95.261719 486.777344 95.597656 C 487.40625 95.933594 488.015625 96.300781 488.609375 96.699219 C 489.203125 97.09375 489.777344 97.519531 490.328125 97.972656 C 490.878906 98.425781 491.40625 98.90625 491.910156 99.410156 C 492.417969 99.914062 492.894531 100.445312 493.347656 100.996094 C 493.800781 101.550781 494.226562 102.121094 494.621094 102.714844 C 495.019531 103.308594 495.382812 103.921875 495.722656 104.550781 C 496.058594 105.183594 496.363281 105.828125 496.636719 106.488281 C 496.90625 107.148438 497.148438 107.820312 497.355469 108.503906 C 497.5625 109.1875 497.734375 109.878906 497.875 110.578125 C 498.015625 111.28125 498.117188 111.984375 498.1875 112.695312 C 498.257812 113.40625 498.292969 114.121094 498.292969 114.835938 C 498.292969 115.550781 498.257812 116.261719 498.1875 116.972656 C 498.117188 117.683594 498.015625 118.390625 497.875 119.089844 C 497.734375 119.789062 497.5625 120.484375 497.355469 121.167969 C 497.148438 121.851562 496.90625 122.523438 496.636719 123.183594 C 496.363281 123.84375 496.058594 124.488281 495.722656 125.117188 C 495.382812 125.746094 495.019531 126.359375 494.621094 126.953125 C 494.226562 127.546875 493.800781 128.121094 493.347656 128.671875 C 492.894531 129.226562 492.417969 129.753906 491.910156 130.257812 C 491.40625 130.765625 490.878906 131.242188 490.328125 131.695312 C 489.777344 132.148438 489.203125 132.574219 488.609375 132.972656 C 488.015625 133.367188 487.40625 133.734375 486.777344 134.070312 C 486.144531 134.410156 485.5 134.714844 484.84375 134.988281 C 484.183594 135.261719 483.511719 135.5 482.828125 135.707031 C 482.144531 135.914062 481.453125 136.089844 480.753906 136.230469 C 480.054688 136.367188 479.351562 136.472656 478.640625 136.542969 C 477.929688 136.613281 477.21875 136.648438 476.503906 136.648438 Z M 476.503906 127.632812 C 477.34375 127.632812 478.175781 127.550781 478.996094 127.386719 C 479.820312 127.222656 480.621094 126.980469 481.394531 126.65625 C 482.171875 126.335938 482.90625 125.941406 483.605469 125.476562 C 484.304688 125.007812 484.949219 124.476562 485.542969 123.882812 C 486.136719 123.289062 486.667969 122.644531 487.132812 121.945312 C 487.597656 121.246094 487.992188 120.507812 488.3125 119.730469 C 488.636719 118.957031 488.878906 118.15625 489.042969 117.332031 C 489.207031 116.507812 489.289062 115.675781 489.289062 114.835938 C 489.289062 113.996094 489.207031 113.164062 489.042969 112.339844 C 488.878906 111.515625 488.636719 110.714844 488.3125 109.9375 C 487.992188 109.160156 487.597656 108.421875 487.132812 107.726562 C 486.667969 107.027344 486.136719 106.378906 485.542969 105.785156 C 484.949219 105.191406 484.304688 104.660156 483.605469 104.195312 C 482.90625 103.726562 482.171875 103.332031 481.394531 103.011719 C 480.621094 102.691406 479.820312 102.449219 478.996094 102.285156 C 478.175781 102.121094 477.34375 102.039062 476.503906 102.039062 C 475.664062 102.039062 474.832031 102.121094 474.011719 102.285156 C 473.1875 102.449219 472.386719 102.691406 471.613281 103.011719 C 470.835938 103.332031 470.097656 103.726562 469.402344 104.195312 C 468.703125 104.660156 468.058594 105.191406 467.464844 105.785156 C 466.871094 106.378906 466.339844 107.027344 465.875 107.726562 C 465.410156 108.421875 465.015625 109.160156 464.691406 109.9375 C 464.371094 110.714844 464.128906 111.515625 463.964844 112.339844 C 463.800781 113.164062 463.71875 113.996094 463.71875 114.835938 C 463.71875 115.675781 463.800781 116.507812 463.964844 117.332031 C 464.128906 118.15625 464.371094 118.957031 464.691406 119.730469 C 465.015625 120.507812 465.410156 121.246094 465.875 121.945312 C 466.339844 122.644531 466.871094 123.289062 467.464844 123.882812 C 468.058594 124.476562 468.703125 125.007812 469.402344 125.476562 C 470.097656 125.941406 470.835938 126.335938 471.613281 126.65625 C 472.386719 126.980469 473.1875 127.222656 474.011719 127.386719 C 474.832031 127.550781 475.664062 127.632812 476.503906 127.632812 Z M 430.890625 136.648438 C 430.175781 136.648438 429.464844 136.613281 428.753906 136.542969 C 428.042969 136.472656 427.339844 136.367188 426.640625 136.230469 C 425.9375 136.089844 425.246094 135.914062 424.566406 135.707031 C 423.882812 135.5 423.210938 135.261719 422.550781 134.988281 C 421.890625 134.714844 421.246094 134.410156 420.617188 134.070312 C 419.988281 133.734375 419.378906 133.367188 418.785156 132.972656 C 418.191406 132.574219 417.617188 132.148438 417.066406 131.695312 C 416.515625 131.242188 415.988281 130.765625 415.480469 130.257812 C 414.976562 129.753906 414.5 129.226562 414.046875 128.671875 C 413.59375 128.121094 413.167969 127.546875 412.773438 126.953125 C 412.375 126.359375 412.007812 125.746094 411.671875 125.117188 C 411.335938 124.488281 411.03125 123.84375 410.757812 123.183594 C 410.484375 122.523438 410.246094 121.851562 410.039062 121.167969 C 409.832031 120.484375 409.65625 119.789062 409.519531 119.089844 C 409.378906 118.390625 409.273438 117.683594 409.203125 116.972656 C 409.136719 116.261719 409.101562 115.550781 409.101562 114.835938 C 409.101562 114.121094 409.136719 113.40625 409.203125 112.695312 C 409.273438 111.984375 409.378906 111.28125 409.519531 110.578125 C 409.65625 109.878906 409.832031 109.1875 410.039062 108.503906 C 410.246094 107.820312 410.484375 107.148438 410.757812 106.488281 C 411.03125 105.828125 411.335938 105.183594 411.671875 104.550781 C 412.007812 103.921875 412.375 103.308594 412.773438 102.714844 C 413.167969 102.121094 413.59375 101.550781 414.046875 100.996094 C 414.5 100.445312 414.976562 99.914062 415.480469 99.410156 C 415.988281 98.90625 416.515625 98.425781 417.066406 97.972656 C 417.617188 97.519531 418.191406 97.09375 418.785156 96.699219 C 419.378906 96.300781 419.988281 95.933594 420.617188 95.597656 C 421.246094 95.261719 421.890625 94.957031 422.550781 94.683594 C 423.210938 94.410156 423.882812 94.167969 424.566406 93.960938 C 425.246094 93.753906 425.9375 93.582031 426.640625 93.441406 C 427.339844 93.300781 428.042969 93.195312 428.753906 93.125 C 429.464844 93.058594 430.175781 93.023438 430.890625 93.023438 C 431.605469 93.023438 432.316406 93.058594 433.027344 93.125 C 433.734375 93.195312 434.441406 93.300781 435.140625 93.441406 C 435.839844 93.582031 436.53125 93.753906 437.214844 93.960938 C 437.898438 94.167969 438.570312 94.410156 439.230469 94.683594 C 439.886719 94.957031 440.53125 95.261719 441.160156 95.597656 C 441.792969 95.933594 442.402344 96.300781 442.996094 96.699219 C 443.589844 97.09375 444.160156 97.519531 444.714844 97.972656 C 445.265625 98.425781 445.792969 98.90625 446.296875 99.410156 C 446.800781 99.914062 447.28125 100.445312 447.734375 100.996094 C 448.1875 101.550781 448.609375 102.121094 449.007812 102.714844 C 449.402344 103.308594 449.769531 103.921875 450.105469 104.550781 C 450.445312 105.183594 450.75 105.828125 451.019531 106.488281 C 451.292969 107.148438 451.535156 107.820312 451.742188 108.503906 C 451.949219 109.1875 452.121094 109.878906 452.261719 110.578125 C 452.402344 111.28125 452.503906 111.984375 452.574219 112.695312 C 452.644531 113.40625 452.679688 114.121094 452.679688 114.835938 C 452.679688 115.550781 452.644531 116.261719 452.574219 116.972656 C 452.503906 117.683594 452.402344 118.390625 452.261719 119.089844 C 452.121094 119.789062 451.949219 120.484375 451.742188 121.167969 C 451.535156 121.851562 451.292969 122.523438 451.019531 123.183594 C 450.75 123.84375 450.445312 124.488281 450.105469 125.117188 C 449.769531 125.746094 449.402344 126.359375 449.007812 126.953125 C 448.609375 127.546875 448.1875 128.121094 447.734375 128.671875 C 447.28125 129.226562 446.800781 129.753906 446.296875 130.257812 C 445.792969 130.765625 445.265625 131.242188 444.714844 131.695312 C 444.160156 132.148438 443.589844 132.574219 442.996094 132.972656 C 442.402344 133.367188 441.792969 133.734375 441.160156 134.070312 C 440.53125 134.410156 439.886719 134.714844 439.230469 134.988281 C 438.570312 135.261719 437.898438 135.5 437.214844 135.707031 C 436.53125 135.914062 435.839844 136.089844 435.140625 136.230469 C 434.441406 136.367188 433.734375 136.472656 433.027344 136.542969 C 432.316406 136.613281 431.605469 136.648438 430.890625 136.648438 Z M 430.890625 127.632812 C 431.730469 127.632812 432.5625 127.550781 433.382812 127.386719 C 434.207031 127.222656 435.007812 126.980469 435.78125 126.65625 C 436.558594 126.335938 437.292969 125.941406 437.992188 125.476562 C 438.691406 125.007812 439.335938 124.476562 439.929688 123.882812 C 440.523438 123.289062 441.054688 122.644531 441.519531 121.945312 C 441.984375 121.246094 442.378906 120.507812 442.699219 119.730469 C 443.023438 118.957031 443.265625 118.15625 443.429688 117.332031 C 443.589844 116.507812 443.671875 115.675781 443.671875 114.835938 C 443.671875 113.996094 443.589844 113.164062 443.429688 112.339844 C 443.265625 111.515625 443.023438 110.714844 442.699219 109.9375 C 442.378906 109.160156 441.984375 108.421875 441.519531 107.726562 C 441.054688 107.027344 440.523438 106.378906 439.929688 105.785156 C 439.335938 105.191406 438.691406 104.660156 437.992188 104.195312 C 437.292969 103.726562 436.558594 103.332031 435.78125 103.011719 C 435.007812 102.691406 434.207031 102.449219 433.382812 102.285156 C 432.5625 102.121094 431.730469 102.039062 430.890625 102.039062 C 430.050781 102.039062 429.21875 102.121094 428.394531 102.285156 C 427.574219 102.449219 426.773438 102.691406 425.996094 103.011719 C 425.222656 103.332031 424.484375 103.726562 423.789062 104.195312 C 423.089844 104.660156 422.445312 105.191406 421.851562 105.785156 C 421.257812 106.378906 420.726562 107.027344 420.261719 107.726562 C 419.792969 108.421875 419.402344 109.160156 419.078125 109.9375 C 418.757812 110.714844 418.515625 111.515625 418.351562 112.339844 C 418.1875 113.164062 418.105469 113.996094 418.105469 114.835938 C 418.105469 115.675781 418.1875 116.507812 418.351562 117.332031 C 418.515625 118.15625 418.757812 118.957031 419.078125 119.730469 C 419.402344 120.507812 419.792969 121.246094 420.261719 121.945312 C 420.726562 122.644531 421.257812 123.289062 421.851562 123.882812 C 422.445312 124.476562 423.089844 125.007812 423.789062 125.476562 C 424.484375 125.941406 425.222656 126.335938 425.996094 126.65625 C 426.773438 126.980469 427.574219 127.222656 428.394531 127.386719 C 429.21875 127.550781 430.050781 127.632812 430.890625 127.632812 Z M 407.066406 114.542969 C 407.066406 126.730469 397.304688 136.648438 385.277344 136.648438 C 373.25 136.648438 363.488281 126.757812 363.488281 114.574219 C 363.488281 102.386719 372.347656 93.023438 385.277344 93.023438 C 390.042969 93.023438 394.457031 94.039062 398.058594 96.6875 L 398.058594 84.035156 C 398.058594 81.621094 400.179688 79.644531 402.5625 79.644531 C 404.945312 79.644531 407.066406 81.621094 407.066406 84.035156 Z M 385.277344 127.632812 C 386.117188 127.632812 386.945312 127.550781 387.769531 127.386719 C 388.59375 127.222656 389.394531 126.980469 390.167969 126.65625 C 390.945312 126.335938 391.679688 125.941406 392.378906 125.476562 C 393.078125 125.007812 393.722656 124.476562 394.316406 123.882812 C 394.910156 123.289062 395.4375 122.644531 395.90625 121.945312 C 396.371094 121.246094 396.765625 120.507812 397.085938 119.730469 C 397.40625 118.957031 397.652344 118.15625 397.8125 117.332031 C 397.976562 116.507812 398.058594 115.675781 398.058594 114.835938 C 398.058594 113.996094 397.976562 113.164062 397.8125 112.339844 C 397.652344 111.515625 397.40625 110.714844 397.085938 109.9375 C 396.765625 109.160156 396.371094 108.421875 395.90625 107.726562 C 395.4375 107.027344 394.910156 106.378906 394.316406 105.785156 C 393.722656 105.191406 393.078125 104.660156 392.378906 104.195312 C 391.679688 103.726562 390.945312 103.332031 390.167969 103.011719 C 389.394531 102.691406 388.59375 102.449219 387.769531 102.285156 C 386.945312 102.121094 386.117188 102.039062 385.277344 102.039062 C 384.4375 102.039062 383.605469 102.121094 382.78125 102.285156 C 381.960938 102.449219 381.160156 102.691406 380.382812 103.011719 C 379.609375 103.332031 378.871094 103.726562 378.175781 104.195312 C 377.476562 104.660156 376.832031 105.191406 376.238281 105.785156 C 375.644531 106.378906 375.113281 107.027344 374.648438 107.726562 C 374.179688 108.421875 373.789062 109.160156 373.464844 109.9375 C 373.144531 110.714844 372.902344 111.515625 372.738281 112.339844 C 372.574219 113.164062 372.492188 113.996094 372.492188 114.835938 C 372.492188 115.675781 372.574219 116.507812 372.738281 117.332031 C 372.902344 118.15625 373.144531 118.957031 373.464844 119.730469 C 373.789062 120.507812 374.179688 121.246094 374.648438 121.945312 C 375.113281 122.644531 375.644531 123.289062 376.238281 123.882812 C 376.832031 124.476562 377.476562 125.007812 378.175781 125.476562 C 378.871094 125.941406 379.609375 126.335938 380.382812 126.65625 C 381.160156 126.980469 381.960938 127.222656 382.78125 127.386719 C 383.605469 127.550781 384.4375 127.632812 385.277344 127.632812 Z M 385.277344 127.632812 " fill-opacity="1" fill-rule="nonzero"/><path fill="#714b67" d="M 339.664062 136.648438 C 338.949219 136.648438 338.238281 136.613281 337.527344 136.542969 C 336.816406 136.472656 336.113281 136.367188 335.410156 136.230469 C 334.710938 136.089844 334.019531 135.914062 333.335938 135.707031 C 332.65625 135.5 331.984375 135.261719 331.324219 134.988281 C 330.664062 134.714844 330.019531 134.410156 329.390625 134.070312 C 328.761719 133.734375 328.148438 133.367188 327.558594 132.972656 C 326.964844 132.574219 326.390625 132.148438 325.839844 131.695312 C 325.289062 131.242188 324.757812 130.765625 324.253906 130.257812 C 323.75 129.753906 323.269531 129.226562 322.820312 128.671875 C 322.367188 128.121094 321.941406 127.546875 321.542969 126.953125 C 321.148438 126.359375 320.78125 125.746094 320.445312 125.117188 C 320.109375 124.488281 319.804688 123.84375 319.53125 123.183594 C 319.257812 122.523438 319.019531 121.851562 318.8125 121.167969 C 318.605469 120.484375 318.429688 119.789062 318.292969 119.089844 C 318.152344 118.390625 318.046875 117.683594 317.976562 116.972656 C 317.90625 116.261719 317.871094 115.550781 317.871094 114.835938 C 317.871094 114.121094 317.90625 113.40625 317.976562 112.695312 C 318.046875 111.984375 318.152344 111.28125 318.292969 110.578125 C 318.429688 109.878906 318.605469 109.1875 318.8125 108.503906 C 319.019531 107.820312 319.257812 107.148438 319.53125 106.488281 C 319.804688 105.828125 320.109375 105.183594 320.445312 104.550781 C 320.78125 103.921875 321.148438 103.308594 321.542969 102.714844 C 321.941406 102.121094 322.367188 101.550781 322.820312 100.996094 C 323.269531 100.445312 323.75 99.914062 324.253906 99.410156 C 324.757812 98.90625 325.289062 98.425781 325.839844 97.972656 C 326.390625 97.519531 326.964844 97.09375 327.558594 96.699219 C 328.148438 96.300781 328.761719 95.933594 329.390625 95.597656 C 330.019531 95.261719 330.664062 94.957031 331.324219 94.683594 C 331.984375 94.410156 332.65625 94.167969 333.335938 93.960938 C 334.019531 93.753906 334.710938 93.582031 335.410156 93.441406 C 336.113281 93.300781 336.816406 93.195312 337.527344 93.125 C 338.238281 93.058594 338.949219 93.023438 339.664062 93.023438 C 340.375 93.023438 341.089844 93.058594 341.796875 93.125 C 342.507812 93.195312 343.214844 93.300781 343.914062 93.441406 C 344.613281 93.582031 345.304688 93.753906 345.988281 93.960938 C 346.671875 94.167969 347.34375 94.410156 348 94.683594 C 348.660156 94.957031 349.304688 95.261719 349.933594 95.597656 C 350.5625 95.933594 351.175781 96.300781 351.769531 96.699219 C 352.363281 97.09375 352.933594 97.519531 353.484375 97.972656 C 354.039062 98.425781 354.566406 98.90625 355.070312 99.410156 C 355.574219 99.914062 356.054688 100.445312 356.507812 100.996094 C 356.960938 101.550781 357.382812 102.121094 357.78125 102.714844 C 358.175781 103.308594 358.542969 103.921875 358.878906 104.550781 C 359.214844 105.183594 359.519531 105.828125 359.792969 106.488281 C 360.066406 107.148438 360.308594 107.820312 360.515625 108.503906 C 360.722656 109.1875 360.894531 109.878906 361.035156 110.578125 C 361.171875 111.28125 361.277344 111.984375 361.347656 112.695312 C 361.417969 113.40625 361.453125 114.121094 361.453125 114.835938 C 361.453125 115.550781 361.417969 116.261719 361.347656 116.972656 C 361.277344 117.683594 361.171875 118.390625 361.035156 119.089844 C 360.894531 119.789062 360.722656 120.484375 360.515625 121.167969 C 360.308594 121.851562 360.066406 122.523438 359.792969 123.183594 C 359.519531 123.84375 359.214844 124.488281 358.878906 125.117188 C 358.542969 125.746094 358.175781 126.359375 357.78125 126.953125 C 357.382812 127.546875 356.960938 128.121094 356.507812 128.671875 C 356.054688 129.226562 355.574219 129.753906 355.070312 130.257812 C 354.566406 130.765625 354.039062 131.242188 353.484375 131.695312 C 352.933594 132.148438 352.363281 132.574219 351.769531 132.972656 C 351.175781 133.367188 350.5625 133.734375 349.933594 134.070312 C 349.304688 134.410156 348.660156 134.714844 348 134.988281 C 347.34375 135.261719 346.671875 135.5 345.988281 135.707031 C 345.304688 135.914062 344.613281 136.089844 343.914062 136.230469 C 343.214844 136.367188 342.507812 136.472656 341.796875 136.542969 C 341.089844 136.613281 340.375 136.648438 339.664062 136.648438 Z M 339.664062 127.632812 C 340.503906 127.632812 341.332031 127.550781 342.15625 127.386719 C 342.980469 127.222656 343.777344 126.980469 344.554688 126.65625 C 345.332031 126.335938 346.066406 125.941406 346.765625 125.476562 C 347.460938 125.007812 348.109375 124.476562 348.703125 123.882812 C 349.296875 123.289062 349.824219 122.644531 350.292969 121.945312 C 350.757812 121.246094 351.152344 120.507812 351.472656 119.730469 C 351.792969 118.957031 352.035156 118.15625 352.199219 117.332031 C 352.363281 116.507812 352.445312 115.675781 352.445312 114.835938 C 352.445312 113.996094 352.363281 113.164062 352.199219 112.339844 C 352.035156 111.515625 351.792969 110.714844 351.472656 109.9375 C 351.152344 109.160156 350.757812 108.421875 350.292969 107.726562 C 349.824219 107.027344 349.296875 106.378906 348.703125 105.785156 C 348.109375 105.191406 347.460938 104.660156 346.765625 104.195312 C 346.066406 103.726562 345.332031 103.332031 344.554688 103.011719 C 343.777344 102.691406 342.980469 102.449219 342.15625 102.285156 C 341.332031 102.121094 340.503906 102.039062 339.664062 102.039062 C 338.824219 102.039062 337.992188 102.121094 337.167969 102.285156 C 336.34375 102.449219 335.546875 102.691406 334.769531 103.011719 C 333.996094 103.332031 333.257812 103.726562 332.558594 104.195312 C 331.863281 104.660156 331.21875 105.191406 330.625 105.785156 C 330.03125 106.378906 329.5 107.027344 329.035156 107.726562 C 328.566406 108.421875 328.171875 109.160156 327.851562 109.9375 C 327.53125 110.714844 327.289062 111.515625 327.125 112.339844 C 326.960938 113.164062 326.878906 113.996094 326.878906 114.835938 C 326.878906 115.675781 326.960938 116.507812 327.125 117.332031 C 327.289062 118.15625 327.53125 118.957031 327.851562 119.730469 C 328.171875 120.507812 328.566406 121.246094 329.035156 121.945312 C 329.5 122.644531 330.03125 123.289062 330.625 123.882812 C 331.21875 124.476562 331.863281 125.007812 332.558594 125.476562 C 333.257812 125.941406 333.996094 126.335938 334.769531 126.65625 C 335.546875 126.980469 336.34375 127.222656 337.167969 127.386719 C 337.992188 127.550781 338.824219 127.632812 339.664062 127.632812 Z M 339.664062 127.632812 " fill-opacity="1" fill-rule="nonzero"/></svg>