<svg xmlns="http://www.w3.org/2000/svg" xmlns:xlink="http://www.w3.org/1999/xlink" width="1096" zoomAndPan="magnify" viewBox="0 0 822 359.999987" height="480" preserveAspectRatio="xMidYMid meet" version="1.0"><defs><clipPath id="8b2c1af792"><path d="M 562.285156 68.144531 L 785.785156 68.144531 L 785.785156 291.644531 L 562.285156 291.644531 Z M 562.285156 68.144531 " clip-rule="nonzero"/></clipPath><clipPath id="3123b754c1"><path d="M 36 68.144531 L 259.5 68.144531 L 259.5 291.644531 L 36 291.644531 Z M 36 68.144531 " clip-rule="nonzero"/></clipPath><clipPath id="7b83ac7792"><path d="M 379 211.152344 L 443.332031 211.152344 L 443.332031 291.75 L 379 291.75 Z M 379 211.152344 " clip-rule="nonzero"/></clipPath><clipPath id="d2e4341b5a"><path d="M 284.019531 211.152344 L 364.621094 211.152344 L 364.621094 291.75 L 284.019531 291.75 Z M 284.019531 211.152344 " clip-rule="nonzero"/></clipPath><clipPath id="593668791b"><path d="M 457.714844 211.152344 L 538.316406 211.152344 L 538.316406 291.75 L 457.714844 291.75 Z M 457.714844 211.152344 " clip-rule="nonzero"/></clipPath><clipPath id="fc8f7870f7"><path d="M 330.367188 169 L 491.617188 169 L 491.617188 190.394531 L 330.367188 190.394531 Z M 330.367188 169 " clip-rule="nonzero"/></clipPath><clipPath id="90e5f0f4fa"><path d="M 330.367188 68.144531 L 392 68.144531 L 392 129 L 330.367188 129 Z M 330.367188 68.144531 " clip-rule="nonzero"/></clipPath></defs><rect x="-82.2" width="986.4" fill="#ffffff" y="-35.999999" height="431.999984" fill-opacity="1"/><rect x="-82.2" width="986.4" fill="#ebffd1" y="-35.999999" height="431.999984" fill-opacity="1"/><g clip-path="url(#8b2c1af792)"><path fill="#ce394f" d="M 785.785156 179.894531 C 785.785156 181.722656 785.742188 183.550781 785.652344 185.375 C 785.5625 187.203125 785.425781 189.027344 785.246094 190.847656 C 785.066406 192.667969 784.84375 194.480469 784.574219 196.289062 C 784.308594 198.097656 783.996094 199.902344 783.636719 201.695312 C 783.28125 203.488281 782.882812 205.273438 782.4375 207.046875 C 781.992188 208.820312 781.503906 210.582031 780.972656 212.332031 C 780.441406 214.082031 779.871094 215.816406 779.253906 217.539062 C 778.636719 219.261719 777.980469 220.96875 777.277344 222.65625 C 776.578125 224.347656 775.839844 226.019531 775.054688 227.671875 C 774.273438 229.324219 773.453125 230.957031 772.589844 232.570312 C 771.726562 234.183594 770.828125 235.773438 769.886719 237.34375 C 768.945312 238.914062 767.96875 240.457031 766.953125 241.976562 C 765.9375 243.5 764.882812 244.992188 763.792969 246.460938 C 762.703125 247.929688 761.578125 249.371094 760.417969 250.785156 C 759.257812 252.199219 758.066406 253.585938 756.835938 254.941406 C 755.609375 256.292969 754.347656 257.617188 753.054688 258.910156 C 751.761719 260.207031 750.4375 261.464844 749.082031 262.695312 C 747.726562 263.921875 746.34375 265.117188 744.929688 266.277344 C 743.515625 267.4375 742.074219 268.5625 740.605469 269.652344 C 739.136719 270.742188 737.640625 271.792969 736.121094 272.808594 C 734.601562 273.824219 733.054688 274.804688 731.488281 275.742188 C 729.917969 276.683594 728.328125 277.585938 726.714844 278.449219 C 725.101562 279.308594 723.46875 280.132812 721.816406 280.914062 C 720.160156 281.695312 718.488281 282.4375 716.800781 283.136719 C 715.109375 283.835938 713.40625 284.496094 711.683594 285.109375 C 709.960938 285.726562 708.226562 286.300781 706.476562 286.832031 C 704.726562 287.363281 702.960938 287.847656 701.1875 288.292969 C 699.414062 288.738281 697.628906 289.140625 695.835938 289.496094 C 694.042969 289.851562 692.242188 290.164062 690.433594 290.433594 C 688.625 290.703125 686.808594 290.925781 684.988281 291.105469 C 683.167969 291.285156 681.34375 291.417969 679.519531 291.507812 C 677.691406 291.597656 675.863281 291.644531 674.035156 291.644531 C 672.207031 291.644531 670.378906 291.597656 668.550781 291.507812 C 666.726562 291.417969 664.902344 291.285156 663.082031 291.105469 C 661.261719 290.925781 659.449219 290.703125 657.636719 290.433594 C 655.828125 290.164062 654.027344 289.851562 652.234375 289.496094 C 650.441406 289.140625 648.65625 288.738281 646.882812 288.292969 C 645.109375 287.847656 643.347656 287.363281 641.597656 286.832031 C 639.847656 286.300781 638.109375 285.726562 636.386719 285.109375 C 634.667969 284.496094 632.960938 283.835938 631.269531 283.136719 C 629.582031 282.4375 627.910156 281.695312 626.257812 280.914062 C 624.601562 280.132812 622.96875 279.308594 621.355469 278.449219 C 619.746094 277.585938 618.152344 276.683594 616.585938 275.742188 C 615.015625 274.804688 613.472656 273.824219 611.949219 272.808594 C 610.429688 271.792969 608.933594 270.742188 607.464844 269.652344 C 605.996094 268.5625 604.554688 267.4375 603.140625 266.277344 C 601.726562 265.117188 600.34375 263.921875 598.988281 262.695312 C 597.632812 261.464844 596.308594 260.207031 595.015625 258.910156 C 593.722656 257.617188 592.460938 256.292969 591.234375 254.941406 C 590.007812 253.585938 588.8125 252.199219 587.652344 250.785156 C 586.492188 249.371094 585.367188 247.929688 584.277344 246.460938 C 583.1875 244.992188 582.136719 243.5 581.117188 241.976562 C 580.101562 240.457031 579.125 238.914062 578.183594 237.34375 C 577.246094 235.773438 576.34375 234.183594 575.480469 232.570312 C 574.617188 230.957031 573.796875 229.324219 573.015625 227.671875 C 572.234375 226.019531 571.492188 224.347656 570.792969 222.65625 C 570.09375 220.96875 569.433594 219.261719 568.816406 217.539062 C 568.203125 215.816406 567.628906 214.082031 567.097656 212.332031 C 566.566406 210.582031 566.078125 208.820312 565.632812 207.046875 C 565.191406 205.273438 564.789062 203.488281 564.433594 201.695312 C 564.074219 199.902344 563.761719 198.097656 563.496094 196.289062 C 563.226562 194.480469 563.003906 192.667969 562.824219 190.847656 C 562.644531 189.027344 562.511719 187.203125 562.421875 185.375 C 562.332031 183.550781 562.285156 181.722656 562.285156 179.894531 C 562.285156 178.0625 562.332031 176.234375 562.421875 174.410156 C 562.511719 172.582031 562.644531 170.757812 562.824219 168.9375 C 563.003906 167.121094 563.226562 165.304688 563.496094 163.496094 C 563.761719 161.6875 564.074219 159.886719 564.433594 158.089844 C 564.789062 156.296875 565.191406 154.515625 565.632812 152.738281 C 566.078125 150.964844 566.566406 149.203125 567.097656 147.453125 C 567.628906 145.703125 568.203125 143.96875 568.816406 142.246094 C 569.433594 140.523438 570.09375 138.816406 570.792969 137.128906 C 571.492188 135.4375 572.234375 133.765625 573.015625 132.113281 C 573.796875 130.460938 574.617188 128.828125 575.480469 127.214844 C 576.34375 125.601562 577.246094 124.011719 578.183594 122.441406 C 579.125 120.875 580.101562 119.328125 581.117188 117.808594 C 582.136719 116.289062 583.1875 114.792969 584.277344 113.324219 C 585.367188 111.855469 586.492188 110.414062 587.652344 109 C 588.8125 107.585938 590.007812 106.203125 591.234375 104.847656 C 592.460938 103.492188 593.722656 102.167969 595.015625 100.875 C 596.308594 99.582031 597.632812 98.320312 598.988281 97.089844 C 600.34375 95.863281 601.726562 94.667969 603.140625 93.507812 C 604.554688 92.347656 605.996094 91.222656 607.464844 90.132812 C 608.933594 89.046875 610.429688 87.992188 611.949219 86.976562 C 613.472656 85.960938 615.015625 84.980469 616.585938 84.042969 C 618.152344 83.101562 619.746094 82.199219 621.355469 81.339844 C 622.96875 80.476562 624.601562 79.652344 626.257812 78.871094 C 627.910156 78.089844 629.582031 77.347656 631.269531 76.648438 C 632.960938 75.949219 634.667969 75.292969 636.386719 74.675781 C 638.109375 74.058594 639.847656 73.484375 641.597656 72.953125 C 643.347656 72.425781 645.109375 71.9375 646.882812 71.492188 C 648.65625 71.046875 650.441406 70.648438 652.234375 70.289062 C 654.027344 69.933594 655.828125 69.621094 657.636719 69.351562 C 659.449219 69.085938 661.261719 68.859375 663.082031 68.679688 C 664.902344 68.5 666.726562 68.367188 668.550781 68.277344 C 670.378906 68.1875 672.207031 68.144531 674.035156 68.144531 C 675.863281 68.144531 677.691406 68.1875 679.519531 68.277344 C 681.34375 68.367188 683.167969 68.5 684.988281 68.679688 C 686.808594 68.859375 688.625 69.085938 690.433594 69.351562 C 692.242188 69.621094 694.042969 69.933594 695.835938 70.289062 C 697.628906 70.648438 699.414062 71.046875 701.1875 71.492188 C 702.960938 71.9375 704.726562 72.425781 706.476562 72.953125 C 708.226562 73.484375 709.960938 74.058594 711.683594 74.675781 C 713.40625 75.292969 715.109375 75.949219 716.800781 76.648438 C 718.488281 77.347656 720.160156 78.089844 721.816406 78.871094 C 723.46875 79.652344 725.101562 80.476562 726.714844 81.339844 C 728.328125 82.199219 729.917969 83.101562 731.488281 84.042969 C 733.054688 84.980469 734.601562 85.960938 736.121094 86.976562 C 737.640625 87.992188 739.136719 89.046875 740.605469 90.132812 C 742.074219 91.222656 743.515625 92.347656 744.929688 93.507812 C 746.34375 94.667969 747.726562 95.863281 749.082031 97.089844 C 750.4375 98.320312 751.761719 99.582031 753.054688 100.875 C 754.347656 102.167969 755.609375 103.492188 756.835938 104.847656 C 758.066406 106.203125 759.257812 107.585938 760.417969 109 C 761.578125 110.414062 762.703125 111.855469 763.792969 113.324219 C 764.882812 114.792969 765.9375 116.289062 766.953125 117.808594 C 767.96875 119.328125 768.945312 120.875 769.886719 122.441406 C 770.828125 124.011719 771.726562 125.601562 772.589844 127.214844 C 773.453125 128.828125 774.273438 130.460938 775.054688 132.113281 C 775.839844 133.765625 776.578125 135.4375 777.277344 137.128906 C 777.980469 138.816406 778.636719 140.523438 779.253906 142.246094 C 779.871094 143.96875 780.441406 145.703125 780.972656 147.453125 C 781.503906 149.203125 781.992188 150.964844 782.4375 152.738281 C 782.882812 154.515625 783.28125 156.296875 783.636719 158.089844 C 783.996094 159.886719 784.308594 161.6875 784.574219 163.496094 C 784.84375 165.304688 785.066406 167.121094 785.246094 168.9375 C 785.425781 170.757812 785.5625 172.582031 785.652344 174.410156 C 785.742188 176.234375 785.785156 178.0625 785.785156 179.894531 Z M 785.785156 179.894531 " fill-opacity="1" fill-rule="nonzero"/></g><path fill="#ffffff" d="M 649.429688 136.910156 L 641.464844 136.910156 C 640.597656 136.910156 639.886719 136.203125 639.886719 135.335938 L 639.886719 116.644531 C 639.886719 115.777344 640.597656 115.066406 641.464844 115.066406 L 649.429688 115.066406 C 650.296875 115.066406 651.007812 115.777344 651.007812 116.644531 C 651.007812 117.511719 650.296875 118.222656 649.429688 118.222656 L 643.042969 118.222656 L 643.042969 124.453125 L 649.429688 124.453125 C 650.296875 124.453125 651.007812 125.160156 651.007812 126.027344 C 651.007812 126.894531 650.296875 127.605469 649.429688 127.605469 L 643.042969 127.605469 L 643.042969 133.757812 L 649.429688 133.757812 C 650.296875 133.757812 651.007812 134.46875 651.007812 135.335938 C 651.007812 136.203125 650.296875 136.910156 649.429688 136.910156 Z M 649.429688 136.910156 " fill-opacity="1" fill-rule="evenodd"/><path fill="#ffffff" d="M 668.75 137.070312 C 667.882812 137.070312 667.175781 136.359375 667.175781 135.492188 L 667.175781 128.945312 L 661.179688 128.945312 L 661.179688 135.492188 C 661.179688 136.359375 660.472656 137.070312 659.605469 137.070312 C 658.734375 137.070312 658.027344 136.359375 658.027344 135.492188 L 658.027344 119.246094 C 658.027344 116.878906 659.917969 114.988281 662.285156 114.988281 L 666.070312 114.988281 C 668.4375 114.988281 670.328125 116.878906 670.328125 119.246094 L 670.328125 135.492188 C 670.328125 136.359375 669.621094 137.070312 668.75 137.070312 Z M 661.179688 125.792969 L 667.175781 125.792969 L 667.175781 119.246094 C 667.175781 118.617188 666.703125 118.140625 666.070312 118.140625 L 662.285156 118.140625 C 661.652344 118.140625 661.179688 118.617188 661.179688 119.246094 Z M 661.179688 125.792969 " fill-opacity="1" fill-rule="evenodd"/><path fill="#ffffff" d="M 682.710938 137.070312 C 679.242188 137.070312 676.402344 134.230469 676.402344 130.761719 C 676.402344 129.894531 677.113281 129.183594 677.980469 129.183594 C 678.847656 129.183594 679.554688 129.894531 679.554688 130.761719 C 679.554688 132.496094 680.976562 133.914062 682.710938 133.914062 C 684.445312 133.914062 685.867188 132.496094 685.867188 130.761719 C 685.867188 129.027344 684.445312 127.605469 682.710938 127.605469 C 679.242188 127.605469 676.402344 124.765625 676.402344 121.296875 C 676.402344 117.75 679.242188 114.988281 682.710938 114.988281 C 686.179688 114.988281 689.019531 117.75 689.019531 121.296875 C 689.019531 122.164062 688.308594 122.875 687.441406 122.875 C 686.574219 122.875 685.867188 122.164062 685.867188 121.296875 C 685.867188 119.5625 684.445312 118.140625 682.710938 118.140625 C 680.976562 118.140625 679.554688 119.5625 679.554688 121.296875 C 679.554688 123.03125 680.976562 124.453125 682.710938 124.453125 C 686.179688 124.453125 689.019531 127.210938 689.019531 130.761719 C 689.019531 134.230469 686.179688 137.070312 682.710938 137.070312 Z M 682.710938 137.070312 " fill-opacity="1" fill-rule="evenodd"/><path fill="#ffffff" d="M 700.847656 136.910156 C 699.980469 136.910156 699.273438 136.203125 699.273438 135.335938 L 699.273438 126.34375 L 693.59375 117.511719 C 693.121094 116.800781 693.355469 115.777344 694.066406 115.304688 C 694.777344 114.832031 695.800781 115.066406 696.273438 115.777344 L 700.847656 122.875 L 705.1875 115.855469 C 705.660156 115.066406 706.605469 114.832031 707.394531 115.304688 C 708.105469 115.777344 708.339844 116.722656 707.867188 117.511719 L 702.503906 126.34375 L 702.503906 135.335938 C 702.503906 136.203125 701.796875 136.910156 700.847656 136.910156 Z M 700.847656 136.910156 " fill-opacity="1" fill-rule="evenodd"/><path fill="#ffffff" d="M 676.71875 210.019531 L 671.277344 210.019531 C 668.59375 210.019531 666.386719 207.8125 666.386719 205.128906 L 666.386719 201.660156 C 665.125 201.265625 663.941406 200.710938 662.835938 200.160156 L 660.3125 202.605469 C 659.445312 203.550781 658.183594 204.105469 656.84375 204.105469 C 655.582031 204.105469 654.320312 203.550781 653.453125 202.605469 L 649.589844 198.820312 C 648.640625 197.875 648.089844 196.613281 648.089844 195.351562 C 648.089844 194.007812 648.640625 192.746094 649.589844 191.878906 L 652.03125 189.355469 C 651.480469 188.253906 651.007812 187.070312 650.535156 185.808594 L 647.0625 185.808594 C 644.382812 185.808594 642.175781 183.597656 642.175781 180.917969 L 642.175781 175.476562 C 642.175781 172.796875 644.382812 170.585938 647.0625 170.585938 L 650.613281 170.585938 C 651.007812 169.324219 651.480469 168.140625 652.03125 167.039062 L 649.589844 164.515625 C 648.640625 163.566406 648.089844 162.386719 648.089844 161.042969 C 648.089844 159.78125 648.640625 158.519531 649.589844 157.574219 L 653.453125 153.710938 C 654.320312 152.84375 655.582031 152.289062 656.84375 152.289062 C 658.183594 152.289062 659.445312 152.84375 660.3125 153.710938 L 662.835938 156.234375 C 663.941406 155.601562 665.125 155.128906 666.386719 154.734375 L 666.386719 151.265625 C 666.386719 148.503906 668.59375 146.296875 671.277344 146.296875 L 676.71875 146.296875 C 679.476562 146.296875 681.605469 148.503906 681.605469 151.265625 L 681.605469 154.734375 C 682.867188 155.128906 684.050781 155.601562 685.15625 156.234375 L 687.679688 153.710938 C 688.625 152.84375 689.808594 152.289062 691.148438 152.289062 C 692.410156 152.289062 693.671875 152.84375 694.617188 153.710938 L 698.484375 157.574219 C 700.375 159.46875 700.375 162.621094 698.484375 164.515625 L 695.960938 167.039062 C 696.589844 168.140625 697.0625 169.324219 697.457031 170.585938 L 700.929688 170.585938 C 703.6875 170.585938 705.898438 172.796875 705.898438 175.476562 L 705.898438 180.917969 C 705.898438 183.597656 703.6875 185.808594 700.929688 185.808594 L 697.457031 185.808594 C 697.0625 187.070312 696.589844 188.253906 695.960938 189.355469 L 698.484375 191.878906 C 699.351562 192.746094 699.902344 194.007812 699.902344 195.351562 C 699.902344 196.613281 699.351562 197.875 698.484375 198.820312 L 694.617188 202.605469 C 693.671875 203.550781 692.410156 204.105469 691.148438 204.105469 C 689.808594 204.105469 688.625 203.550781 687.679688 202.605469 L 685.15625 200.160156 C 684.050781 200.710938 682.867188 201.265625 681.605469 201.660156 L 681.605469 205.128906 C 681.605469 207.8125 679.476562 210.019531 676.71875 210.019531 Z M 668.59375 185.570312 C 667.726562 185.570312 667.015625 184.859375 667.015625 183.992188 L 667.015625 173.976562 L 665.359375 173.976562 C 664.492188 173.976562 663.785156 173.269531 663.785156 172.402344 C 663.785156 171.535156 664.492188 170.824219 665.359375 170.824219 L 671.90625 170.824219 C 672.773438 170.824219 673.484375 171.535156 673.484375 172.402344 C 673.484375 173.269531 672.773438 173.976562 671.90625 173.976562 L 670.25 173.976562 L 670.25 183.992188 C 670.25 184.859375 669.539062 185.570312 668.59375 185.570312 Z M 674.035156 196.453125 C 663.941406 196.453125 655.738281 188.253906 655.738281 178.15625 C 655.738281 168.140625 663.941406 159.941406 674.035156 159.941406 C 684.050781 159.941406 692.253906 168.140625 692.253906 178.15625 C 692.253906 188.253906 684.050781 196.453125 674.035156 196.453125 Z M 674.035156 163.09375 C 665.675781 163.09375 658.894531 169.878906 658.894531 178.15625 C 658.894531 186.515625 665.675781 193.300781 674.035156 193.300781 C 682.316406 193.300781 689.097656 186.515625 689.097656 178.15625 C 689.097656 169.878906 682.316406 163.09375 674.035156 163.09375 Z M 681.132812 185.570312 L 677.585938 185.570312 C 675.847656 185.570312 674.429688 184.152344 674.429688 182.417969 L 674.429688 173.976562 C 674.429688 172.242188 675.847656 170.824219 677.585938 170.824219 L 681.132812 170.824219 C 682.867188 170.824219 684.289062 172.242188 684.289062 173.976562 L 684.289062 182.417969 C 684.289062 184.152344 682.867188 185.570312 681.132812 185.570312 Z M 681.054688 173.976562 L 677.585938 173.976562 L 677.664062 182.417969 L 681.054688 182.417969 Z M 681.054688 173.976562 " fill-opacity="1" fill-rule="evenodd"/><path fill="#ffffff" d="M 654.082031 244.796875 C 650.613281 244.796875 647.773438 241.957031 647.773438 238.488281 C 647.773438 237.621094 648.484375 236.910156 649.351562 236.910156 C 650.21875 236.910156 650.929688 237.621094 650.929688 238.488281 C 650.929688 240.222656 652.347656 241.644531 654.082031 241.644531 C 655.816406 241.644531 657.238281 240.222656 657.238281 238.488281 C 657.238281 236.753906 655.816406 235.335938 654.082031 235.335938 C 650.613281 235.335938 647.773438 232.496094 647.773438 229.023438 C 647.773438 225.554688 650.613281 222.714844 654.082031 222.714844 C 657.554688 222.714844 660.390625 225.554688 660.390625 229.023438 C 660.390625 229.890625 659.683594 230.601562 658.816406 230.601562 C 657.949219 230.601562 657.238281 229.890625 657.238281 229.023438 C 657.238281 227.289062 655.816406 225.871094 654.082031 225.871094 C 652.347656 225.871094 650.929688 227.289062 650.929688 229.023438 C 650.929688 230.761719 652.347656 232.179688 654.082031 232.179688 C 657.554688 232.179688 660.390625 235.019531 660.390625 238.488281 C 660.390625 241.957031 657.554688 244.796875 654.082031 244.796875 Z M 654.082031 244.796875 " fill-opacity="1" fill-rule="evenodd"/><path fill="#ffffff" d="M 672.929688 244.796875 C 672.0625 244.796875 671.355469 244.089844 671.355469 243.21875 L 671.355469 225.871094 L 667.570312 225.871094 C 666.703125 225.871094 665.992188 225.160156 665.992188 224.292969 C 665.992188 223.425781 666.703125 222.714844 667.570312 222.714844 L 678.292969 222.714844 C 679.160156 222.714844 679.871094 223.425781 679.871094 224.292969 C 679.871094 225.160156 679.160156 225.871094 678.292969 225.871094 L 674.507812 225.871094 L 674.507812 243.21875 C 674.507812 244.089844 673.800781 244.796875 672.929688 244.796875 Z M 672.929688 244.796875 " fill-opacity="1" fill-rule="evenodd"/><path fill="#ffffff" d="M 693.355469 244.796875 C 692.488281 244.796875 691.78125 244.089844 691.78125 243.21875 L 691.78125 236.675781 L 685.785156 236.675781 L 685.785156 243.21875 C 685.785156 244.089844 685.078125 244.796875 684.210938 244.796875 C 683.339844 244.796875 682.632812 244.089844 682.632812 243.21875 L 682.632812 226.972656 C 682.632812 224.609375 684.523438 222.714844 686.890625 222.714844 L 690.675781 222.714844 C 693.042969 222.714844 694.933594 224.609375 694.933594 226.972656 L 694.933594 243.21875 C 694.933594 244.089844 694.226562 244.796875 693.355469 244.796875 Z M 685.785156 233.519531 L 691.78125 233.519531 L 691.78125 226.972656 C 691.78125 226.34375 691.308594 225.871094 690.675781 225.871094 L 686.890625 225.871094 C 686.257812 225.871094 685.785156 226.34375 685.785156 226.972656 Z M 685.785156 233.519531 " fill-opacity="1" fill-rule="evenodd"/><path fill="#ffffff" d="M 639.886719 244.796875 C 639.808594 244.796875 639.808594 244.796875 639.730469 244.796875 C 639.492188 244.71875 639.257812 244.71875 639.097656 244.5625 C 638.941406 244.480469 638.703125 244.324219 638.625 244.167969 C 638.546875 244.089844 638.546875 244.089844 638.46875 244.007812 L 629.554688 229.734375 L 629.554688 243.21875 C 629.554688 244.089844 628.847656 244.796875 627.980469 244.796875 C 627.113281 244.796875 626.402344 244.089844 626.402344 243.21875 L 626.402344 224.292969 C 626.402344 224.214844 626.402344 224.214844 626.402344 224.136719 C 626.402344 223.898438 626.480469 223.664062 626.558594 223.503906 C 626.71875 223.347656 626.875 223.109375 627.03125 223.03125 C 627.191406 222.875 627.347656 222.792969 627.585938 222.714844 C 627.742188 222.714844 627.898438 222.714844 628.136719 222.714844 C 628.375 222.714844 628.53125 222.792969 628.769531 222.875 C 628.925781 222.953125 629.082031 223.109375 629.242188 223.347656 C 629.320312 223.347656 629.320312 223.425781 629.320312 223.425781 L 638.308594 237.699219 L 638.308594 224.292969 C 638.308594 223.425781 639.019531 222.714844 639.886719 222.714844 C 640.753906 222.714844 641.464844 223.425781 641.464844 224.292969 L 641.464844 243.140625 C 641.464844 243.21875 641.464844 243.300781 641.464844 243.300781 C 641.386719 243.535156 641.386719 243.773438 641.226562 243.929688 C 641.148438 244.167969 640.992188 244.324219 640.835938 244.480469 C 640.675781 244.5625 640.519531 244.640625 640.28125 244.71875 C 640.125 244.796875 640.046875 244.796875 639.886719 244.796875 Z M 639.886719 244.796875 " fill-opacity="1" fill-rule="evenodd"/><path fill="#ffffff" d="M 618.121094 244.796875 C 617.253906 244.796875 616.542969 244.089844 616.542969 243.21875 L 616.542969 224.292969 C 616.542969 223.425781 617.253906 222.714844 618.121094 222.714844 C 618.988281 222.714844 619.699219 223.425781 619.699219 224.292969 L 619.699219 243.21875 C 619.699219 244.089844 618.988281 244.796875 618.121094 244.796875 Z M 618.121094 244.796875 " fill-opacity="1" fill-rule="evenodd"/><path fill="#ffffff" d="M 712.601562 244.796875 L 703.136719 244.796875 C 702.269531 244.796875 701.558594 244.089844 701.558594 243.21875 L 701.558594 224.292969 C 701.558594 223.425781 702.269531 222.714844 703.136719 222.714844 C 704.003906 222.714844 704.714844 223.425781 704.714844 224.292969 L 704.714844 241.644531 L 712.601562 241.644531 C 713.46875 241.644531 714.175781 242.351562 714.175781 243.21875 C 714.175781 244.089844 713.46875 244.796875 712.601562 244.796875 Z M 712.601562 244.796875 " fill-opacity="1" fill-rule="evenodd"/><path fill="#ffffff" d="M 729.949219 244.796875 L 720.488281 244.796875 C 719.617188 244.796875 718.910156 244.089844 718.910156 243.21875 L 718.910156 224.292969 C 718.910156 223.425781 719.617188 222.714844 720.488281 222.714844 C 721.355469 222.714844 722.0625 223.425781 722.0625 224.292969 L 722.0625 241.644531 L 729.949219 241.644531 C 730.816406 241.644531 731.527344 242.351562 731.527344 243.21875 C 731.527344 244.089844 730.816406 244.796875 729.949219 244.796875 Z M 729.949219 244.796875 " fill-opacity="1" fill-rule="evenodd"/><path fill="#ffffff" d="M 629.792969 201.660156 C 629.636719 201.660156 629.476562 201.582031 629.242188 201.5 C 621.511719 198.742188 616.148438 191.960938 613.785156 182.023438 C 612.363281 176.027344 612.363281 170.507812 612.441406 167.90625 L 607.867188 166.722656 C 607.238281 166.566406 606.84375 166.011719 606.765625 165.382812 C 606.605469 164.75 606.921875 164.121094 607.476562 163.804688 L 622.851562 154.972656 C 623.167969 154.734375 623.640625 154.65625 624.035156 154.8125 C 624.429688 154.894531 624.746094 155.207031 624.980469 155.523438 L 633.816406 170.824219 C 634.128906 171.375 634.128906 172.085938 633.734375 172.636719 C 633.34375 173.109375 632.632812 173.347656 632.082031 173.1875 L 627.742188 172.007812 C 624.667969 186.28125 631.132812 199.214844 631.210938 199.292969 C 631.527344 199.925781 631.449219 200.632812 630.976562 201.105469 C 630.660156 201.421875 630.265625 201.660156 629.792969 201.660156 Z M 724.429688 201.660156 C 723.878906 201.660156 723.324219 201.34375 723.011719 200.871094 L 714.175781 185.492188 C 713.863281 184.941406 713.941406 184.308594 714.335938 183.757812 C 714.730469 183.285156 715.359375 183.046875 715.992188 183.207031 L 720.25 184.386719 C 723.40625 170.113281 716.859375 157.179688 716.78125 157.023438 C 716.542969 156.46875 716.621094 155.761719 717.015625 155.289062 C 717.488281 154.8125 718.121094 154.578125 718.75 154.8125 C 726.480469 157.652344 731.84375 164.355469 734.207031 174.292969 C 735.707031 180.289062 735.707031 185.886719 735.550781 188.488281 L 740.125 189.671875 C 740.753906 189.828125 741.226562 190.382812 741.304688 191.011719 C 741.386719 191.644531 741.070312 192.273438 740.519531 192.589844 L 725.21875 201.421875 C 724.980469 201.582031 724.667969 201.660156 724.429688 201.660156 Z M 724.429688 201.660156 " fill-opacity="1" fill-rule="evenodd"/><g clip-path="url(#3123b754c1)"><path fill="#004aad" d="M 259.710938 180 C 259.710938 181.828125 259.664062 183.660156 259.578125 185.488281 C 259.488281 187.316406 259.351562 189.140625 259.171875 190.960938 C 258.992188 192.785156 258.769531 194.601562 258.5 196.410156 C 258.230469 198.222656 257.917969 200.023438 257.5625 201.820312 C 257.203125 203.617188 256.804688 205.402344 256.359375 207.175781 C 255.914062 208.953125 255.425781 210.714844 254.894531 212.46875 C 254.363281 214.21875 253.789062 215.957031 253.171875 217.679688 C 252.554688 219.40625 251.898438 221.113281 251.195312 222.804688 C 250.496094 224.496094 249.753906 226.167969 248.972656 227.824219 C 248.1875 229.476562 247.367188 231.113281 246.503906 232.726562 C 245.640625 234.339844 244.738281 235.933594 243.796875 237.503906 C 242.855469 239.074219 241.875 240.621094 240.859375 242.140625 C 239.84375 243.664062 238.789062 245.160156 237.699219 246.628906 C 236.609375 248.101562 235.480469 249.542969 234.320312 250.957031 C 233.160156 252.375 231.964844 253.757812 230.734375 255.117188 C 229.503906 256.472656 228.242188 257.796875 226.949219 259.09375 C 225.65625 260.386719 224.328125 261.648438 222.972656 262.878906 C 221.617188 264.105469 220.230469 265.300781 218.816406 266.464844 C 217.402344 267.625 215.957031 268.75 214.488281 269.839844 C 213.015625 270.933594 211.519531 271.984375 210 273.003906 C 208.476562 274.019531 206.929688 275 205.359375 275.941406 C 203.789062 276.882812 202.199219 277.78125 200.582031 278.644531 C 198.96875 279.507812 197.335938 280.332031 195.679688 281.113281 C 194.023438 281.898438 192.351562 282.640625 190.660156 283.339844 C 188.96875 284.039062 187.261719 284.699219 185.539062 285.316406 C 183.816406 285.933594 182.078125 286.507812 180.324219 287.039062 C 178.574219 287.570312 176.808594 288.058594 175.035156 288.5 C 173.257812 288.945312 171.472656 289.347656 169.675781 289.703125 C 167.882812 290.0625 166.078125 290.375 164.269531 290.644531 C 162.457031 290.910156 160.640625 291.136719 158.820312 291.316406 C 156.996094 291.496094 155.171875 291.628906 153.34375 291.71875 C 151.515625 291.808594 149.6875 291.855469 147.855469 291.855469 C 146.023438 291.855469 144.195312 291.808594 142.367188 291.71875 C 140.539062 291.628906 138.714844 291.496094 136.890625 291.316406 C 135.070312 291.136719 133.253906 290.910156 131.441406 290.644531 C 129.632812 290.375 127.828125 290.0625 126.035156 289.703125 C 124.238281 289.347656 122.453125 288.945312 120.675781 288.5 C 118.902344 288.058594 117.136719 287.570312 115.386719 287.039062 C 113.632812 286.507812 111.894531 285.933594 110.171875 285.316406 C 108.449219 284.699219 106.742188 284.039062 105.050781 283.339844 C 103.359375 282.640625 101.6875 281.898438 100.03125 281.113281 C 98.375 280.332031 96.742188 279.507812 95.128906 278.644531 C 93.511719 277.78125 91.921875 276.882812 90.351562 275.941406 C 88.78125 275 87.234375 274.019531 85.710938 273.003906 C 84.191406 271.984375 82.695312 270.933594 81.222656 269.839844 C 79.753906 268.75 78.308594 267.625 76.894531 266.464844 C 75.480469 265.300781 74.09375 264.105469 72.738281 262.878906 C 71.382812 261.648438 70.054688 260.386719 68.761719 259.09375 C 67.46875 257.796875 66.207031 256.472656 64.976562 255.117188 C 63.746094 253.757812 62.550781 252.375 61.390625 250.957031 C 60.230469 249.542969 59.101562 248.101562 58.011719 246.628906 C 56.921875 245.160156 55.867188 243.664062 54.851562 242.140625 C 53.835938 240.621094 52.855469 239.074219 51.914062 237.503906 C 50.972656 235.933594 50.070312 234.339844 49.207031 232.726562 C 48.34375 231.113281 47.523438 229.476562 46.738281 227.824219 C 45.957031 226.167969 45.214844 224.496094 44.515625 222.804688 C 43.8125 221.113281 43.15625 219.40625 42.539062 217.679688 C 41.921875 215.957031 41.347656 214.21875 40.816406 212.46875 C 40.285156 210.714844 39.796875 208.953125 39.351562 207.175781 C 38.90625 205.402344 38.507812 203.617188 38.148438 201.820312 C 37.792969 200.023438 37.480469 198.222656 37.210938 196.410156 C 36.941406 194.601562 36.71875 192.785156 36.539062 190.960938 C 36.359375 189.140625 36.222656 187.316406 36.132812 185.488281 C 36.046875 183.660156 36 181.828125 36 180 C 36 178.167969 36.046875 176.339844 36.132812 174.511719 C 36.222656 172.679688 36.359375 170.855469 36.539062 169.035156 C 36.71875 167.210938 36.941406 165.398438 37.210938 163.585938 C 37.480469 161.773438 37.792969 159.972656 38.148438 158.175781 C 38.507812 156.382812 38.90625 154.59375 39.351562 152.820312 C 39.796875 151.042969 40.285156 149.28125 40.816406 147.527344 C 41.347656 145.777344 41.921875 144.039062 42.539062 142.316406 C 43.15625 140.589844 43.8125 138.882812 44.515625 137.191406 C 45.214844 135.5 45.957031 133.828125 46.738281 132.175781 C 47.523438 130.519531 48.34375 128.882812 49.207031 127.269531 C 50.070312 125.65625 50.972656 124.0625 51.914062 122.492188 C 52.855469 120.921875 53.835938 119.375 54.851562 117.855469 C 55.867188 116.332031 56.921875 114.835938 58.011719 113.367188 C 59.101562 111.894531 60.230469 110.453125 61.390625 109.039062 C 62.550781 107.621094 63.746094 106.238281 64.976562 104.878906 C 66.207031 103.523438 67.46875 102.199219 68.761719 100.90625 C 70.054688 99.609375 71.382812 98.347656 72.738281 97.117188 C 74.09375 95.890625 75.480469 94.695312 76.894531 93.53125 C 78.308594 92.371094 79.753906 91.246094 81.222656 90.15625 C 82.695312 89.066406 84.191406 88.011719 85.710938 86.992188 C 87.234375 85.976562 88.78125 84.996094 90.351562 84.058594 C 91.921875 83.117188 93.511719 82.214844 95.128906 81.351562 C 96.742188 80.488281 98.375 79.664062 100.03125 78.882812 C 101.6875 78.097656 103.359375 77.359375 105.050781 76.65625 C 106.742188 75.957031 108.449219 75.296875 110.171875 74.679688 C 111.894531 74.066406 113.632812 73.492188 115.386719 72.960938 C 117.136719 72.429688 118.902344 71.941406 120.675781 71.496094 C 122.453125 71.050781 124.238281 70.648438 126.035156 70.292969 C 127.828125 69.933594 129.632812 69.621094 131.441406 69.351562 C 133.253906 69.085938 135.070312 68.859375 136.890625 68.679688 C 138.714844 68.503906 140.539062 68.367188 142.367188 68.277344 C 144.195312 68.1875 146.023438 68.144531 147.855469 68.144531 C 149.6875 68.144531 151.515625 68.1875 153.34375 68.277344 C 155.171875 68.367188 156.996094 68.503906 158.820312 68.679688 C 160.640625 68.859375 162.457031 69.085938 164.269531 69.351562 C 166.078125 69.621094 167.882812 69.933594 169.675781 70.292969 C 171.472656 70.648438 173.257812 71.050781 175.035156 71.496094 C 176.808594 71.941406 178.574219 72.429688 180.324219 72.960938 C 182.078125 73.492188 183.816406 74.066406 185.539062 74.679688 C 187.261719 75.296875 188.96875 75.957031 190.660156 76.65625 C 192.351562 77.359375 194.023438 78.097656 195.679688 78.882812 C 197.335938 79.664062 198.96875 80.488281 200.582031 81.351562 C 202.199219 82.214844 203.789062 83.117188 205.359375 84.058594 C 206.929688 84.996094 208.476562 85.976562 210 86.992188 C 211.519531 88.011719 213.015625 89.066406 214.488281 90.15625 C 215.957031 91.246094 217.402344 92.371094 218.816406 93.53125 C 220.230469 94.695312 221.617188 95.890625 222.972656 97.117188 C 224.328125 98.347656 225.65625 99.609375 226.949219 100.90625 C 228.242188 102.199219 229.503906 103.523438 230.734375 104.878906 C 231.964844 106.238281 233.160156 107.621094 234.320312 109.039062 C 235.480469 110.453125 236.609375 111.894531 237.699219 113.367188 C 238.789062 114.835938 239.84375 116.332031 240.859375 117.855469 C 241.875 119.375 242.855469 120.921875 243.796875 122.492188 C 244.738281 124.0625 245.640625 125.65625 246.503906 127.269531 C 247.367188 128.882812 248.1875 130.519531 248.972656 132.175781 C 249.753906 133.828125 250.496094 135.5 251.195312 137.191406 C 251.898438 138.882812 252.554688 140.589844 253.171875 142.316406 C 253.789062 144.039062 254.363281 145.777344 254.894531 147.527344 C 255.425781 149.28125 255.914062 151.042969 256.359375 152.820312 C 256.804688 154.59375 257.203125 156.382812 257.5625 158.175781 C 257.917969 159.972656 258.230469 161.773438 258.5 163.585938 C 258.769531 165.394531 258.992188 167.210938 259.171875 169.035156 C 259.351562 170.855469 259.488281 172.679688 259.578125 174.511719 C 259.664062 176.339844 259.710938 178.167969 259.710938 180 Z M 259.710938 180 " fill-opacity="1" fill-rule="nonzero"/></g><path fill="#ffffff" d="M 206.832031 205.824219 C 206.292969 206.0625 205.695312 206.0625 205.160156 205.792969 C 204.621094 205.554688 204.234375 205.078125 204.117188 204.511719 C 204.117188 204.480469 203.25 201.109375 201.9375 197.800781 C 199.761719 192.339844 198.300781 191.925781 198.238281 191.894531 C 198.238281 191.894531 198.238281 191.894531 198.210938 191.894531 C 196.777344 192.550781 195.019531 194.25 194.300781 197.023438 C 193.644531 199.589844 193.707031 203.765625 197.703125 209.164062 C 198.148438 209.761719 198.210938 210.566406 197.882812 211.222656 C 197.554688 211.878906 196.867188 212.296875 196.121094 212.296875 L 121.164062 212.296875 L 121.164062 219.277344 C 121.164062 219.515625 121.164062 219.753906 121.164062 219.992188 C 121.164062 220.230469 121.164062 220.46875 121.195312 220.707031 C 121.195312 220.945312 121.222656 221.15625 121.222656 221.394531 L 121.222656 221.425781 C 121.222656 221.632812 121.253906 221.8125 121.285156 222.019531 L 121.285156 222.050781 C 121.285156 222.199219 121.3125 222.347656 121.34375 222.527344 C 121.34375 222.617188 121.371094 222.675781 121.371094 222.765625 C 121.371094 222.824219 121.402344 222.914062 121.402344 222.976562 C 121.433594 223.332031 121.492188 223.660156 121.550781 223.988281 C 121.582031 224.167969 121.613281 224.316406 121.640625 224.496094 C 121.671875 224.675781 121.699219 224.824219 121.730469 225.003906 C 121.789062 225.332031 121.878906 225.6875 121.96875 226.015625 C 122.027344 226.226562 122.058594 226.40625 122.117188 226.613281 C 122.179688 226.792969 122.238281 226.972656 122.269531 227.179688 C 123.101562 229.953125 124.355469 232.578125 126.027344 234.996094 C 126.085938 235.085938 126.117188 235.144531 126.175781 235.234375 C 131.1875 242.332031 139.476562 246.988281 148.785156 246.988281 C 150.425781 246.988281 152.125 247.046875 153.914062 247.074219 C 159.554688 247.226562 165.964844 247.402344 170.738281 246.003906 C 178.730469 243.644531 193.496094 236.546875 202.265625 215.457031 C 202.566406 214.742188 203.25 214.265625 204.027344 214.234375 C 204.144531 214.234375 215.71875 213.847656 219.328125 206.121094 C 217.6875 204.898438 213.421875 202.8125 206.832031 205.824219 Z M 206.832031 205.824219 " fill-opacity="1" fill-rule="nonzero"/><path fill="#ffffff" d="M 118.570312 228.375 C 118.480469 228.074219 118.390625 227.746094 118.300781 227.449219 C 118.269531 227.300781 118.210938 227.179688 118.179688 227.03125 L 118.179688 227 C 118.152344 226.851562 118.089844 226.671875 118.0625 226.523438 C 118.03125 226.433594 118.03125 226.375 118.003906 226.285156 C 117.972656 226.105469 117.914062 225.929688 117.882812 225.777344 C 117.851562 225.539062 117.792969 225.332031 117.761719 225.09375 C 117.734375 224.972656 117.734375 224.855469 117.703125 224.734375 C 117.703125 224.644531 117.675781 224.554688 117.675781 224.496094 C 117.644531 224.378906 117.644531 224.289062 117.613281 224.167969 C 117.585938 224.050781 117.585938 223.960938 117.585938 223.839844 C 117.585938 223.808594 117.585938 223.808594 117.585938 223.78125 C 117.585938 223.691406 117.554688 223.601562 117.554688 223.542969 C 117.554688 223.511719 117.554688 223.511719 117.554688 223.480469 C 117.523438 223.394531 117.523438 223.304688 117.523438 223.214844 C 117.523438 223.214844 117.523438 223.214844 117.523438 223.183594 C 117.496094 222.976562 117.464844 222.765625 117.464844 222.558594 C 117.464844 222.527344 117.464844 222.496094 117.464844 222.46875 C 117.464844 222.4375 117.464844 222.410156 117.464844 222.378906 C 117.433594 222.167969 117.433594 221.929688 117.40625 221.722656 C 117.40625 221.542969 117.375 221.394531 117.375 221.214844 C 117.375 221.15625 117.375 221.066406 117.375 221.007812 C 117.375 220.945312 117.375 220.855469 117.375 220.796875 L 117.375 220.769531 C 117.375 220.558594 117.347656 220.351562 117.347656 220.113281 C 117.347656 219.84375 117.347656 219.574219 117.347656 219.304688 L 117.347656 210.359375 C 117.347656 209.285156 118.242188 208.390625 119.316406 208.390625 L 129.785156 208.390625 L 129.785156 196.515625 C 129.785156 195.445312 130.648438 194.550781 131.753906 194.550781 L 137.867188 194.550781 L 137.867188 182.675781 C 137.867188 181.601562 138.761719 180.707031 139.835938 180.707031 L 154.003906 180.707031 L 154.003906 168.835938 C 154.003906 167.761719 154.898438 166.867188 155.972656 166.867188 L 172.109375 166.867188 C 173.183594 166.867188 174.078125 167.761719 174.078125 168.835938 L 174.078125 194.519531 L 178.195312 194.519531 L 178.195312 144.050781 L 76.242188 144.050781 L 76.242188 231.804688 C 76.242188 233.117188 77.285156 234.160156 78.597656 234.160156 L 120.957031 234.160156 C 120.058594 232.460938 119.285156 230.699219 118.71875 228.851562 C 118.660156 228.703125 118.597656 228.554688 118.570312 228.375 Z M 84.328125 155.742188 L 126.832031 155.742188 C 127.90625 155.742188 128.800781 156.636719 128.800781 157.710938 C 128.800781 158.785156 127.90625 159.679688 126.832031 159.679688 L 84.328125 159.679688 C 83.253906 159.679688 82.359375 158.785156 82.359375 157.710938 C 82.386719 156.636719 83.253906 155.742188 84.328125 155.742188 Z M 84.328125 169.074219 L 126.832031 169.074219 C 127.90625 169.074219 128.800781 169.96875 128.800781 171.042969 C 128.800781 172.117188 127.90625 173.011719 126.832031 173.011719 L 84.328125 173.011719 C 83.253906 173.011719 82.359375 172.117188 82.359375 171.042969 C 82.386719 169.941406 83.253906 169.074219 84.328125 169.074219 Z M 84.328125 182.378906 L 126.832031 182.378906 C 127.90625 182.378906 128.800781 183.273438 128.800781 184.347656 C 128.800781 185.453125 127.90625 186.316406 126.832031 186.316406 L 84.328125 186.316406 C 83.253906 186.316406 82.359375 185.453125 82.359375 184.347656 C 82.386719 183.242188 83.253906 182.378906 84.328125 182.378906 Z M 109.441406 212.894531 L 84.328125 212.894531 C 83.253906 212.894531 82.359375 212 82.359375 210.925781 C 82.359375 209.851562 83.253906 208.957031 84.328125 208.957031 L 109.410156 208.957031 C 110.484375 208.957031 111.378906 209.851562 111.378906 210.925781 C 111.410156 212 110.515625 212.894531 109.441406 212.894531 Z M 114.363281 199.621094 L 84.328125 199.621094 C 83.253906 199.621094 82.359375 198.753906 82.359375 197.652344 C 82.359375 196.578125 83.253906 195.683594 84.328125 195.683594 L 114.332031 195.683594 C 115.40625 195.683594 116.300781 196.578125 116.300781 197.652344 C 116.300781 198.753906 115.4375 199.621094 114.363281 199.621094 Z M 114.363281 199.621094 " fill-opacity="1" fill-rule="nonzero"/><path fill="#ffffff" d="M 178.074219 115.144531 C 178.074219 113.832031 177.03125 112.789062 175.71875 112.789062 L 78.597656 112.789062 C 77.285156 112.789062 76.242188 113.832031 76.242188 115.144531 L 76.242188 140.113281 L 178.074219 140.113281 Z M 111.648438 133.191406 C 112.542969 133.820312 112.753906 135.042969 112.097656 135.9375 C 111.707031 136.472656 111.113281 136.773438 110.484375 136.773438 C 110.097656 136.773438 109.679688 136.652344 109.351562 136.414062 L 97.660156 128.0625 C 97.152344 127.703125 96.824219 127.109375 96.824219 126.453125 C 96.824219 125.824219 97.121094 125.226562 97.660156 124.839844 L 109.351562 116.488281 C 110.246094 115.863281 111.46875 116.070312 112.097656 116.9375 C 112.722656 117.832031 112.515625 119.054688 111.648438 119.679688 L 102.191406 126.453125 Z M 132.589844 117.382812 L 125.429688 136.832031 C 125.132812 137.636719 124.386719 138.113281 123.578125 138.113281 C 123.339844 138.113281 123.132812 138.085938 122.894531 137.996094 C 121.878906 137.605469 121.34375 136.503906 121.730469 135.460938 L 128.890625 116.011719 C 129.277344 114.996094 130.378906 114.460938 131.425781 114.847656 C 132.4375 115.234375 132.976562 116.371094 132.589844 117.382812 Z M 156.628906 128.03125 L 144.9375 136.382812 C 144.578125 136.621094 144.191406 136.742188 143.804688 136.742188 C 143.175781 136.742188 142.582031 136.445312 142.191406 135.90625 C 141.566406 135.011719 141.773438 133.789062 142.640625 133.164062 L 152.097656 126.390625 L 142.640625 119.652344 C 141.746094 119.023438 141.566406 117.800781 142.191406 116.90625 C 142.820312 116.011719 144.042969 115.800781 144.9375 116.457031 L 156.628906 124.8125 C 157.136719 125.167969 157.464844 125.765625 157.464844 126.421875 C 157.464844 127.078125 157.167969 127.675781 156.628906 128.03125 Z M 156.628906 128.03125 " fill-opacity="1" fill-rule="nonzero"/><path fill="#ffffff" d="M 165.875 198.515625 L 178.074219 198.515625 L 178.074219 208.417969 L 165.875 208.417969 Z M 165.875 198.515625 " fill-opacity="1" fill-rule="nonzero"/><path fill="#ffffff" d="M 149.738281 198.515625 L 161.9375 198.515625 L 161.9375 208.417969 L 149.738281 208.417969 Z M 149.738281 198.515625 " fill-opacity="1" fill-rule="nonzero"/><path fill="#ffffff" d="M 133.601562 198.515625 L 145.800781 198.515625 L 145.800781 208.417969 L 133.601562 208.417969 Z M 133.601562 198.515625 " fill-opacity="1" fill-rule="nonzero"/><path fill="#ffffff" d="M 157.792969 184.675781 L 169.992188 184.675781 L 169.992188 194.578125 L 157.792969 194.578125 Z M 157.792969 184.675781 " fill-opacity="1" fill-rule="nonzero"/><path fill="#ffffff" d="M 141.6875 184.675781 L 153.886719 184.675781 L 153.886719 194.578125 L 141.6875 194.578125 Z M 141.6875 184.675781 " fill-opacity="1" fill-rule="nonzero"/><path fill="#ffffff" d="M 157.792969 170.867188 L 169.992188 170.867188 L 169.992188 180.769531 L 157.792969 180.769531 Z M 157.792969 170.867188 " fill-opacity="1" fill-rule="nonzero"/><path fill="#70ecff" d="M 412.640625 281.839844 L 389.175781 281.839844 C 384.363281 281.839844 380.445312 277.921875 380.445312 273.078125 L 380.445312 238.101562 C 380.445312 233.273438 384.363281 229.339844 389.175781 229.339844 L 408.6875 229.339844 L 404.363281 251.019531 L 417.9375 251.019531 Z M 412.640625 281.839844 " fill-opacity="1" fill-rule="nonzero"/><g clip-path="url(#7b83ac7792)"><path fill="#454754" d="M 433.15625 218.765625 L 417.96875 218.765625 C 417.183594 218.765625 416.558594 219.394531 416.558594 220.183594 C 416.558594 220.96875 417.183594 221.597656 417.96875 221.597656 L 433.15625 221.597656 C 437.199219 221.597656 440.476562 224.902344 440.476562 228.945312 L 440.476562 273.078125 C 440.476562 277.136719 437.183594 280.421875 433.15625 280.421875 L 414.316406 280.421875 L 416.148438 269.820312 C 422.65625 269.082031 428.484375 266.894531 432.625 263.589844 C 433.234375 263.101562 433.328125 262.203125 432.84375 261.605469 C 432.355469 260.992188 431.464844 260.898438 430.867188 261.386719 C 427.355469 264.1875 422.277344 266.136719 416.652344 266.910156 L 419.347656 251.269531 C 419.425781 250.859375 419.300781 250.4375 419.035156 250.121094 C 418.765625 249.808594 418.375 249.617188 417.953125 249.617188 L 406.101562 249.617188 L 411.902344 220.480469 L 413.390625 212.976562 C 413.546875 212.207031 413.046875 211.464844 412.277344 211.308594 C 411.511719 211.152344 410.773438 211.65625 410.617188 212.425781 L 409.347656 218.78125 L 389.175781 218.78125 C 383.578125 218.78125 379.03125 223.34375 379.03125 228.960938 L 379.03125 273.078125 C 379.03125 278.691406 383.578125 283.253906 389.175781 283.253906 L 405.992188 283.253906 C 406.777344 283.253906 407.402344 282.625 407.402344 281.839844 C 407.402344 281.054688 406.777344 280.421875 405.992188 280.421875 L 389.175781 280.421875 C 385.144531 280.421875 381.855469 277.136719 381.855469 273.078125 L 381.855469 228.945312 C 381.855469 224.886719 385.144531 221.597656 389.175781 221.597656 L 408.796875 221.597656 L 403 250.734375 C 402.921875 251.144531 403.03125 251.585938 403.296875 251.914062 C 403.5625 252.246094 403.972656 252.433594 404.394531 252.433594 L 416.289062 252.433594 L 413.75 267.191406 C 412.90625 267.238281 412.042969 267.269531 411.179688 267.269531 C 403.46875 267.269531 396.101562 265.066406 391.476562 261.371094 C 390.867188 260.882812 389.988281 260.976562 389.503906 261.589844 C 389.015625 262.203125 389.113281 263.085938 389.722656 263.574219 C 394.894531 267.710938 402.71875 270.085938 411.179688 270.085938 C 411.871094 270.085938 412.558594 270.070312 413.25 270.039062 L 409.785156 290.097656 C 409.660156 290.871094 410.164062 291.609375 410.929688 291.734375 C 411.007812 291.75 411.085938 291.75 411.164062 291.75 C 411.839844 291.75 412.433594 291.265625 412.558594 290.570312 L 413.832031 283.222656 L 433.15625 283.222656 C 438.753906 283.222656 443.296875 278.660156 443.296875 273.042969 L 443.296875 228.945312 C 443.296875 223.328125 438.738281 218.765625 433.15625 218.765625 Z M 433.15625 218.765625 " fill-opacity="1" fill-rule="nonzero"/></g><path fill="#454754" d="M 397.890625 240.035156 L 397.890625 235.539062 C 397.890625 234.75 397.261719 234.121094 396.476562 234.121094 C 395.695312 234.121094 395.066406 234.75 395.066406 235.539062 L 395.066406 240.035156 C 395.066406 240.824219 395.695312 241.453125 396.476562 241.453125 C 397.261719 241.453125 397.890625 240.824219 397.890625 240.035156 Z M 397.890625 240.035156 " fill-opacity="1" fill-rule="nonzero"/><path fill="#454754" d="M 427.261719 240.035156 L 427.261719 235.539062 C 427.261719 234.75 426.636719 234.121094 425.851562 234.121094 C 425.070312 234.121094 424.441406 234.75 424.441406 235.539062 L 424.441406 240.035156 C 424.441406 240.824219 425.070312 241.453125 425.851562 241.453125 C 426.636719 241.453125 427.261719 240.824219 427.261719 240.035156 Z M 427.261719 240.035156 " fill-opacity="1" fill-rule="nonzero"/><g clip-path="url(#d2e4341b5a)"><path fill="#dd4814" d="M 364.601562 251.445312 C 364.601562 273.699219 346.558594 291.738281 324.304688 291.738281 C 302.050781 291.738281 284.011719 273.699219 284.011719 251.445312 C 284.011719 229.191406 302.050781 211.152344 324.304688 211.152344 C 346.558594 211.152344 364.601562 229.191406 364.601562 251.445312 Z M 364.601562 251.445312 " fill-opacity="1" fill-rule="nonzero"/></g><path fill="#ffffff" d="M 296.90625 246.0625 C 293.933594 246.0625 291.523438 248.472656 291.523438 251.445312 C 291.523438 254.417969 293.933594 256.824219 296.90625 256.824219 C 299.878906 256.824219 302.285156 254.417969 302.285156 251.445312 C 302.285156 248.472656 299.878906 246.0625 296.90625 246.0625 Z M 335.320312 270.515625 C 332.742188 272.003906 331.863281 275.289062 333.351562 277.863281 C 334.832031 280.433594 338.121094 281.316406 340.695312 279.832031 C 343.269531 278.347656 344.152344 275.058594 342.664062 272.484375 C 341.179688 269.914062 337.890625 269.03125 335.320312 270.515625 Z M 308.59375 251.445312 C 308.59375 246.128906 311.234375 241.433594 315.273438 238.589844 L 311.339844 232 C 306.632812 235.148438 303.132812 239.953125 301.675781 245.585938 C 303.375 246.96875 304.460938 249.082031 304.460938 251.445312 C 304.460938 253.808594 303.375 255.921875 301.675781 257.304688 C 303.128906 262.933594 306.632812 267.746094 311.339844 270.890625 L 315.273438 264.300781 C 311.234375 261.457031 308.59375 256.761719 308.59375 251.445312 Z M 324.304688 235.730469 C 332.515625 235.730469 339.25 242.023438 339.957031 250.054688 L 347.625 249.941406 C 347.246094 244.011719 344.65625 238.691406 340.679688 234.78125 C 338.632812 235.554688 336.273438 235.433594 334.230469 234.257812 C 332.183594 233.078125 330.902344 231.085938 330.550781 228.925781 C 328.5625 228.375 326.46875 228.074219 324.304688 228.074219 C 320.585938 228.074219 317.070312 228.949219 313.949219 230.492188 L 317.6875 237.191406 C 319.699219 236.257812 321.941406 235.730469 324.304688 235.730469 Z M 324.304688 267.160156 C 321.941406 267.160156 319.699219 266.632812 317.6875 265.695312 L 313.949219 272.398438 C 317.070312 273.941406 320.585938 274.816406 324.304688 274.816406 C 326.46875 274.816406 328.5625 274.515625 330.550781 273.964844 C 330.902344 271.804688 332.183594 269.816406 334.230469 268.632812 C 336.273438 267.453125 338.636719 267.335938 340.679688 268.109375 C 344.65625 264.199219 347.246094 258.878906 347.625 252.949219 L 339.953125 252.839844 C 339.25 260.867188 332.515625 267.160156 324.304688 267.160156 Z M 335.316406 232.371094 C 337.890625 233.855469 341.179688 232.976562 342.664062 230.402344 C 344.148438 227.832031 343.269531 224.542969 340.695312 223.054688 C 338.121094 221.570312 334.832031 222.453125 333.347656 225.027344 C 331.863281 227.597656 332.742188 230.886719 335.316406 232.371094 Z M 335.316406 232.371094 " fill-opacity="1" fill-rule="nonzero"/><g clip-path="url(#593668791b)"><path fill="#00adef" d="M 457.714844 222.621094 L 490.652344 218.183594 L 490.652344 249.769531 L 457.769531 249.929688 Z M 490.652344 253.402344 L 490.652344 285.039062 L 457.714844 280.550781 L 457.714844 253.1875 Z M 494.628906 217.597656 L 538.316406 211.238281 L 538.316406 249.339844 L 494.628906 249.714844 Z M 538.316406 253.722656 L 538.316406 291.664062 L 494.628906 285.519531 L 494.574219 253.617188 Z M 538.316406 253.722656 " fill-opacity="1" fill-rule="nonzero"/></g><path fill="#000000" d="M 477.425781 173.613281 L 344.566406 173.613281 C 343.308594 173.613281 342.046875 172.667969 342.046875 171.410156 L 342.046875 87.976562 C 342.046875 84.828125 344.882812 81.996094 348.03125 81.996094 L 473.648438 81.996094 C 477.113281 81.996094 479.632812 84.828125 479.632812 87.976562 L 479.632812 171.410156 C 479.632812 172.667969 478.6875 173.613281 477.425781 173.613281 Z M 477.425781 173.613281 " fill-opacity="1" fill-rule="evenodd"/><path fill="#ffffff" d="M 348.34375 88.292969 L 473.335938 88.292969 L 473.335938 170.464844 L 348.34375 170.464844 Z M 348.34375 88.292969 " fill-opacity="1" fill-rule="evenodd"/><g clip-path="url(#fc8f7870f7)"><path fill="#000000" d="M 480.890625 190.300781 L 340.789062 190.300781 C 335.121094 190.300781 330.398438 185.578125 330.398438 179.910156 L 330.398438 171.410156 C 330.398438 170.148438 331.34375 169.207031 332.917969 169.207031 L 489.390625 169.207031 C 490.652344 169.207031 491.59375 170.148438 491.59375 171.410156 L 491.59375 179.910156 C 491.28125 185.578125 486.558594 190.300781 480.890625 190.300781 Z M 480.890625 190.300781 " fill-opacity="1" fill-rule="evenodd"/></g><path fill="#454754" d="M 387.699219 169.207031 L 434.292969 169.207031 L 434.292969 178.335938 C 434.292969 180.539062 432.40625 182.429688 429.886719 182.429688 L 391.792969 182.429688 C 389.589844 182.429688 387.699219 180.539062 387.699219 178.335938 Z M 387.699219 169.207031 " fill-opacity="1" fill-rule="evenodd"/><path fill="#004aad" d="M 443.738281 159.761719 L 377.9375 159.761719 C 376.679688 159.761719 375.421875 158.5 375.421875 157.242188 L 375.421875 147.480469 C 375.421875 146.222656 376.679688 144.960938 377.9375 144.960938 C 379.199219 144.960938 380.144531 146.222656 380.144531 147.480469 L 380.144531 155.039062 L 441.851562 155.039062 L 441.851562 147.480469 C 441.851562 146.222656 442.796875 144.960938 444.054688 144.960938 C 445.3125 144.960938 446.574219 146.222656 446.574219 147.480469 L 446.574219 157.242188 C 446.257812 158.5 445 159.761719 443.738281 159.761719 Z M 443.738281 159.761719 " fill-opacity="1" fill-rule="evenodd"/><path fill="#004aad" d="M 410.996094 150.628906 C 410.050781 150.628906 409.421875 150 408.792969 149.371094 L 394.625 124.8125 C 393.996094 124.183594 393.996094 123.238281 394.625 122.292969 C 394.941406 121.664062 395.570312 121.035156 396.515625 121.035156 L 401.238281 121.035156 L 401.238281 98.996094 C 401.238281 97.738281 402.496094 96.476562 403.753906 96.476562 L 417.921875 96.476562 C 419.496094 96.476562 420.441406 97.738281 420.441406 98.996094 L 420.441406 121.351562 L 425.480469 121.351562 C 426.109375 121.351562 427.054688 121.664062 427.367188 122.609375 C 427.683594 123.238281 427.683594 124.183594 427.367188 124.8125 L 412.886719 149.371094 C 412.570312 150 411.625 150.628906 410.996094 150.628906 Z M 410.996094 150.628906 " fill-opacity="1" fill-rule="evenodd"/><g clip-path="url(#90e5f0f4fa)"><path fill="#6abdc8" d="M 365.660156 128.90625 L 355.902344 128.90625 C 355.269531 128.90625 354.640625 128.589844 354.328125 127.648438 L 353.066406 119.144531 C 352.753906 118.832031 352.4375 118.832031 351.808594 118.515625 L 344.882812 123.867188 C 344.25 124.183594 343.308594 124.183594 342.675781 123.554688 L 336.066406 116.941406 C 335.4375 116.3125 335.4375 115.367188 335.75 114.738281 L 341.101562 107.8125 C 340.789062 107.183594 340.472656 106.867188 340.472656 106.554688 L 331.972656 105.292969 C 331.027344 104.980469 330.398438 104.347656 330.398438 103.71875 L 330.398438 93.644531 C 330.398438 93.015625 331.027344 92.386719 331.972656 92.070312 L 340.472656 90.8125 C 340.472656 90.496094 340.789062 90.179688 340.789062 89.550781 L 335.75 82.625 C 335.121094 81.996094 335.121094 81.050781 335.75 80.734375 L 342.675781 73.808594 C 343.308594 73.179688 344.25 73.179688 344.882812 73.496094 L 351.808594 78.847656 C 352.121094 78.53125 352.753906 78.53125 353.066406 78.21875 L 354.328125 69.71875 C 354.328125 68.773438 355.269531 68.144531 355.902344 68.144531 L 365.660156 68.144531 C 366.605469 68.144531 367.234375 68.773438 367.234375 69.71875 L 368.496094 78.21875 C 369.125 78.53125 369.4375 78.53125 369.753906 78.847656 L 376.679688 73.496094 C 377.308594 73.179688 378.253906 73.179688 378.882812 73.808594 L 385.808594 80.734375 C 386.125 81.050781 386.441406 81.996094 385.808594 82.625 L 380.773438 89.550781 C 380.773438 90.179688 381.085938 90.496094 381.085938 90.8125 L 389.902344 92.070312 C 390.53125 92.386719 391.164062 93.015625 391.164062 93.644531 L 391.164062 103.40625 C 391.164062 104.347656 390.53125 104.980469 389.902344 104.980469 L 381.085938 106.238281 C 381.085938 106.867188 380.773438 107.183594 380.773438 107.496094 L 386.125 114.421875 C 386.441406 115.054688 386.441406 115.996094 385.808594 116.628906 L 378.882812 123.554688 C 378.570312 123.867188 377.625 124.183594 376.679688 123.554688 L 370.070312 118.515625 C 369.4375 118.515625 369.125 118.832031 368.496094 118.832031 L 367.550781 127.648438 C 367.234375 128.277344 366.605469 128.90625 365.660156 128.90625 Z M 360.625 111.273438 C 354.011719 111.273438 348.34375 105.609375 348.34375 98.683594 C 348.34375 91.753906 354.011719 86.089844 360.625 86.089844 C 367.550781 86.089844 373.214844 91.753906 373.214844 98.683594 C 373.214844 105.609375 367.550781 111.273438 360.625 111.273438 Z M 360.625 111.273438 " fill-opacity="1" fill-rule="evenodd"/></g></svg>